<svg version="1.0" xmlns="http://www.w3.org/2000/svg" width="872" height="872" viewBox="0 0 654 654"><path d="m238.5 88-5 .7 5.8.1c3.7.1 5.6-.2 5.2-.8-.3-.6-.7-.9-.8-.8-.1 0-2.4.4-5.2.8zM246 87.3c.3.2 3.8.7 7.8 1.1 4.1.3 7.8.8 8.3 1.2.5.3.9.1.9-.4s-1-1.2-2.3-1.4c-3.2-.6-15.3-1-14.7-.5zM231 89c-.8.5-1.1 1-.7 1 .4 0 .2.6-.5 1.4-.8.9-1.7 1.1-2.2.5-1.4-1.3-4.6-1.1-4.6.2 0 .6-.9.9-2 .6-1.1-.3-2-.1-2 .4s-1.1.4-2.4-.2c-2.6-1.2-6.6.2-6.6 2.3 0 .6.9.3 2.1-.8 1.9-1.7 2.2-1.8 5-.2 1.6 1 2.9 1.2 2.9.7 0-.7 1.2-.8 3.1-.4 2.2.5 2.9.4 2.5-.4-.4-.6-1.3-.8-1.9-.5-.9.5-.9.4-.1-.5s2.1-.7 5.5.8c4.5 2 5.6 2.1 4.4.1-.4-.6-1.4-.9-2.3-.5-1.3.5-1.3.2.2-1.4 2.1-2.4 1.9-4.5-.4-3.1z"/><path d="M177 90.1c0 .7-.1.7 13.6.9 12.8.2 15.1 1 10.1 3.4-1.9.9-4.1 1.6-4.9 1.7-.7.1-.3.4 1 .7 2 .6 1.5 1.1-4 3.9-3.5 1.8-8 3.5-10 3.8-3.9.6-5.3 2.5-1.8 2.5 1.4 0 1.8.5 1.3 1.7-.5 1.5-.3 1.6.7.6 1.1-1 1.1-1.5 0-2.8-1.1-1.3-.9-1.5 1.4-1.5 1.5 0 4.3-.8 6.4-1.9 3.6-1.8 3.7-1.8 5.6 0 2.6 2.5 1.2 3.6-4.6 3.8-1 .1-2.7 1-3.8 2.1-1.3 1.3-3.2 1.9-5.7 1.9-2.1 0-6.2.2-9.2.6-4.3.6-5.5.5-6.2-.8-.6-1-1.7-1.3-3.1-.9-1.4.3-1.9.2-1.4-.6.4-.7 1.3-1.2 2.1-1.2 1.6 0 1.3-2.9-.4-4-2.7-1.6.9-2 4.5-.5 3.2 1.3 3.5 1.3 3 0-.3-1 .1-1.8 1.2-2.2.9-.3 2.3-1.1 3-1.6 2.7-2.1-1-2.4-5.8-.6-3 1.1-5.1 1.5-5.5.9-.3-.6-1.9-1-3.6-1-8 0 .9-5.5 13.6-8.3 1.9-.5 1.9-.5-.1-.6-1.1 0-5.3 1-9.2 2.3-4 1.4-7.2 2.2-7.2 1.9 0-.3-.6 0-1.3.6-.8.6-1.7.8-2 .4-.4-.3-.7-.1-.7.6 0 .8-.8 1.1-2 .8-1.4-.4-2.4.2-3.2 1.6-.7 1.2-1.1 2.5-1 2.9.1.5-.3.8-.8.8-2 0-.9 2.1 1.6 3 1.4.6 2.3 1.4 1.9 2-1 1.5 4.2 4.3 7.4 3.8 1.9-.3 2.7 0 2.5.7-.3.6-2.1 1.2-4.2 1.2-2.7.1-4.5-.6-7-2.8-1.8-1.6-3.7-2.9-4.2-2.9-1.9 0-2 2 0 4 1.1 1.1 2 2.2 2 2.4 0 .5-6.2 2.1-7.2 1.8-.5-.1-.8.3-.8.9 0 .7-1.1.8-3 .4-3-.7-4.2.7-1.8 2.1.7.5.8.3.3-.6-.5-.8-.4-1.1.3-.6.6.4.9 1.3.6 2.1-.4.8-1 1.2-1.5.9-.5-.3-.9.2-.9 1 0 .9.4 1.6.9 1.6s.7.9.4 2c-.3 1.1-1 2-1.5 2-.7 0-.7.4-.1 1.2 1.6 2.1 2.3 4.8 1.3 4.8-.6 0-1-.9-1-2s-.7-2-1.5-2c-.9 0-1.2-.6-.8-1.6.5-1.4.3-1.4-1.6-.3-1.1.8-2.1 2.2-2.1 3.3 0 1.8-.1 1.9-2 .1-1.1-1-2-1.3-2-.7 0 1.7-4.1 1-6.2-1-2.2-2.2-12.2-5.1-14.6-4.4-1 .4-2.5 2.3-3.2 4.4-.8 2-1.6 4-1.8 4.4-.2.5.3.8 1.1.8s1.7.7 2.1 1.5c.8 2.1 3.2 1.9 5.8-.7l2.2-2.2 1.5 3.5c2.6 6.1 2.5 7-.7 5.8-1.5-.6-4-1.1-5.7-1.1-1.6.1-3.3-.4-3.7-1.1-.5-.8-.9-.6-1.3.6-.6 1.5-.8 1.5-2.4-.3-1.4-1.8-2-1.9-5.2-.9-3.1 1-6.7 4.4-5.7 5.5.2.2 2.4-1 4.8-2.6 4.3-2.9 4.4-2.9 5.8-.9 1.1 1.6 1.7 1.7 2.8.8 1-.8 1.4-.8 1.4-.1 0 .8.8.8 2.3.3 1.4-.5 3.6-.3 6 .5 2 .7 3.7 1.1 3.7.8 0-.2.9 0 2 .6s1.7 1.6 1.4 2.5c-.4.8-.1 1.5.5 1.5s1.1-.4 1.1-.9.3-1.6.6-2.4c.3-1-.3-1.7-2-2.1-3.6-.9-3.2-2.6.7-2.7 1.7-.1 3.5-.1 4 0 1.3.2.7-1.7-.8-2.3-.8-.3-1.5 0-1.5.7 0 .8-.4.7-1-.3-.7-1-1.3-1.1-1.7-.5-.9 1.2-2.8 1.3-3.8.3-.4-.3.3-.9 1.4-1.3 1.9-.6 3.1-2.7 1.4-2.4-2.1.3-4.3-.2-4.3-1.1 0-.5 1.3-1.6 3-2.5 3.6-1.8 4.1-1.9 3.4-.2-.4 1 .7 1.4 4.2 1.5 2.5 0 5.1.5 5.7 1.1 1.8 1.8 2.8 1.2 2.1-1.4-.5-2.1-.3-2.4 1-1.9 2 .8 5.6 7.9 5.6 11 0 2.2-1.4 2.5-12.9 2.6-1.9 0-2.8.4-2.2.8.7.4 2.3.6 3.7.4 1.5-.1 2.4.3 2.4 1.2 0 1-1.2 1.4-4 1.4-2.2 0-4 .4-4 .8s1.6.6 3.6.4c2.7-.3 3.9 0 4.6 1.2 1.1 2 2.8 1.2 2.8-1.4 0-1 .4-2.1.9-2.4 1.4-.9 5.8 1 5.8 2.6 0 1.2.7 10.4 1.9 24.8.7 9.4 1.1 11.2 3.2 14 2.8 3.8 6.8 5.2 15.1 5.5 4.2.2 15.3.6 24.8 1 18.2.7 21.2.1 24.5-4.2 1.1-1.6 3.7-2.1 7.3-1.5.6.1 1.1 1.1 1.2 2.2.2 2.1-1 2.7-9.2 4-4.2.7-6.8 1.9-10.2 4.6-2.4 2-4.2 3.9-3.9 4.1.3.3 1.9-.6 3.6-2.1 2.5-2.1 3.5-2.4 5.1-1.6 1.3.8 1.9.7 1.9 0s.8-.9 2-.5c2.5.8 2.6-.3.3-2.1-1.6-1.2-1.5-1.3 1.2-1.4 1.7 0 4-.3 5.2-.6 1.6-.4 2.3 0 2.8 1.5.3 1.2 1 1.9 1.4 1.7 1-.6 5.1 2.2 5.1 3.5 0 .5-1.7.7-4 .3-2.8-.5-4-.3-4 .5 0 .7.4.9 1 .6.5-.3 2.6-.2 4.5.4 3 .8 3.5.7 3.5-.7 0-2.3-1.1-3.7-3.8-5.1-1.2-.7-2-1.6-1.7-2.1 1.1-1.8 1.4-5 .5-5-.5 0-.7-.6-.4-1.4.3-.7-.2-1.6-1.1-2-.9-.3-1.4-1-1.1-1.4.3-.5-.6-1.4-2-2-1.9-.9-2.3-1.7-2-3.9.3-1.4 1-2.9 1.6-3.3.6-.4 5.5-1.3 10.8-2 5.3-.7 10.6-1.4 11.7-1.5 1.1-.2 2.6-.4 3.3-.4.8-.1 1.1-.8.7-2-.3-1.1-.1-2.2.5-2.6.5-.3 1-1.7 1-3s.4-2.5 1-2.7c.5-.2 1.1-1.5 1.2-3.1.1-1.5.8-2.7 1.4-2.7.7 0 1.5-.7 1.8-1.6.3-.8 1.1-1.2 1.6-.9 1.1.7 5-1.4 8.2-4.5.9-.8 5.3-3 9.6-4.8 9.3-3.8 12.1-7.2 8.5-10-2.5-2.1-3.7-6.2-1.8-6.2.9 0 1.2.9.9 2.5-.4 2.5.9 3.4 2.2 1.4.3-.6 0-1.5-.7-2-1.1-.7-1-.9.4-.9.9 0 1.7-.6 1.7-1.4 0-.8.8-1.7 1.8-2.1 1.6-.6 1.6-.7-.2-2.1-1.7-1.2-1.8-1.4-.3-1.4 2.4 0 2.1-2.5-.5-4.3l-2.3-1.6h2.6c1.4-.1 2.8-.4 3.2-.7 1.2-1.2-1.8-4.4-4.2-4.4-2.3 0-2.2-.2 1.5-4.4 2.2-2.4 4.5-4.5 5.2-4.5.7-.1 1-.6.7-1.1-.3-.6-.1-1 .4-1 .6 0 1.1-.4 1.1-.9s-1.1-.6-2.5-.3c-1.3.4-2.4 1.1-2.4 1.7 0 .5-1 1.3-2.3 1.9-1.8.7-2 1-.7 1.3 1.4.3 1.2.9-1.2 3.6-1.6 1.7-2.9 3.4-2.9 3.8 0 .4 1.5 1.4 3.3 2.3l3.2 1.6h-3.2c-3.9 0-4.3 1.6-.8 3.2 2.8 1.2 3.3 2.8 1 2.8-1.8 0-1.9 1.2-.3 2.8.9.9.8 1.2-.6 1.2-1.1 0-1.6.5-1.3 1.3.4 1-.1 1.3-1.7 1-2.5-.5-6.1 2.7-3.8 3.4.6.3 1.2.9 1.2 1.5 0 .5 1 1.8 2.3 2.8 2.6 2.2 1.8 3.6-1.3 2-1.6-.9-2.5-.9-3.6 0-1.8 1.6-.9 3 1.9 3 2.1 0 2.1.1-.3 1.3-1.4.7-4.6 2.1-7.3 3.1-2.6 1-6.6 3.3-8.9 5.2-2.5 2.2-4.5 3.1-5 2.6-1.2-1.2-6.1 3.6-6.5 6.3-.2 1.1-.8 2.4-1.3 2.9-.6.6-1 2-1 3.2 0 1.2-.7 2.7-1.5 3.4-1.3 1.1-2.2.9-5.1-.6-4.3-2.3-6.6-5.3-9.4-12.4-2.3-5.8-1.6-10 1.5-10 2.9 0 1.7-4-1.7-5.6l-3.3-1.5 3.5.6 3.4.5-2.9-3c-1.6-1.6-3.5-3-4.2-3-1 0-1.1-1.5-.8-6.2 1.1-12.9-4.3-18.1-18-17.2-3.9.3-7.5.7-8.2.9-.7.2-1.5 0-1.8-.5-.6-.9 1.1-1.6 5.8-2.4 5.1-.9 7.4-3.9 3.7-4.9-3.2-.8-2.3-2.6 1.8-3.2 6.2-1.1 7.4-1.6 6.8-3-.3-.8.3-1.6 1.2-1.8 1.5-.4 1.5-.5-.1-.6-1.1-.1-2.1.7-2.4 1.9-.3 1.3-1.4 2-2.9 2-3 0-2.3-2.3 1.2-3.9 3.1-1.4 2.4-2.8-1.9-3.6-4.3-.8-24.7-1.2-24.7-.4zM157 98c0 .5-.8.7-1.7.4-1-.3-.7.1.7 1 1.5.9 3.6 1.2 5.4.9 2-.4 2.7-.3 2.2.5-.4.6-1.4.8-2.4.5-1.3-.5-1.2-.1.6 1.9l2.2 2.4-2.3 2.2c-2.5 2.3-6.2 2.8-8.7 1.2-1.3-.9-1.3-1.1-.1-1.9 1.1-.7.7-1.3-2-2.4-1.9-.9-2.8-1.6-2-1.6 1.1-.1 1.1-.4.1-1.6-1-1.2-1-1.5.4-1.5.9 0 1.6-.4 1.6-.9 0-.9 2-1.7 4.8-2 .6 0 1.2.3 1.2.9zm18 .5c0 .2-1 .9-2.2 1.5-2.2 1.1-2.2 1-.4-.4 2.1-1.7 2.6-1.9 2.6-1.1zm-5.3 2.9c0 .8-.6 1.2-1.5.9-1.1-.5-1.1-.7 0-1.4.7-.5 1.3-.9 1.4-.9 0 0 .1.6.1 1.4zm-21.1 8.7c.3.5-.4.9-1.4.9-1.1 0-2.2-.6-2.5-1.4-.4-1 0-1.2 1.4-.9 1.1.3 2.2.9 2.5 1.4zM166 112c0 .5-.7.7-1.5.4-.8-.4-1.5-.8-1.5-1 0-.2.7-.4 1.5-.4s1.5.4 1.5 1zm-54.1 15.1 2.5 1-3.5 2.1c-1.9 1.1-4.4 2.9-5.6 4-2.1 2-2.2 2-4.6.2l-2.5-1.9 1.9-3.7c1.8-3.6 2.2-3.7 5.6-3.2 2 .3 4.8 1 6.2 1.5zm107.9 8.7c.2.7-.3 1.2-1.1 1.2-1.9 0-2.8 3.5-1.4 4.9 1.5 1.5 4.4 1.4 5-.2.3-.7.6-.6.6.5.1.9-.8 1.9-1.8 2.3-2.1.6-3.4 4.4-2.5 7.2 1.9 6.1 6.7 14.1 9 15.2 5 2.2 1.9 2-7.4-.7l-9.2-2.6.4-3.5c.5-3.7 2.6-17.4 3.1-20.1.2-.8.4-2.5.4-3.7.1-1.8.6-2.2 2.3-2 1.2.2 2.4.9 2.6 1.5zm48.7 2.2c.3.5-.1 1-.9 1-.9 0-1.6-.5-1.6-1 0-.6.4-1 .9-1 .6 0 1.3.4 1.6 1zm-48 3c.3.5-.1 1-1 1s-1.3-.5-1-1c.3-.6.8-1 1-1 .2 0 .7.4 1 1zm-85.8 3.6c-.3.3-1.2.4-1.9.1-.8-.3-.5-.6.6-.6 1.1-.1 1.7.2 1.3.5zm-6.7 3c0 .8-.5 1.2-1 .9-.6-.4-.8-1.1-.5-1.6.9-1.4 1.5-1.1 1.5.7zm81.8 37.5c-2 1.3-2.8 1.1-2.2-.5.3-.8 1.2-1.2 2.1-.9 1.2.5 1.2.7.1 1.4zm-9.3 11.9c.3.5.2 1-.4 1-.5 0-1.3-.5-1.6-1-.3-.6-.2-1 .4-1 .5 0 1.3.4 1.6 1z"/><path d="M266.8 90c4.3 1 4.3 1.1 1.9 3.5-1.5 1.5-1.9 1.6-1.4.4.6-1.7 0-1.7-8.8-.5-1.6.2-3.3.5-3.7.5-.5.1-.8.5-.8 1.1 0 .9 1.4.8 9-.6 2.1-.4 2.2-.3.7.6-3.1 1.9-.7 3 2.8 1.3 4-1.9 5.1-1.4 3.5 1.6-1.3 2.5-.3 2.7 2.2.4 1-.9 3-1.7 4.6-1.9 1.5-.1 4.6-.5 7-.9 4.6-.8 5.7.5 2 2.3-1.7.8-1.8 1.1-.7 1.1 2.1.1 4.3-2.5 3.4-4-.5-.7-2.2-.9-4.9-.5-7.2 1.2-11.1 1.3-12.4.3-.9-.8-.8-1.2.5-2.3 1.7-1.1 1.6-1.3-1-2.3-1.6-.6-3.8-1.1-5-1-1.5.1-1.1.4 1.1.9zM400.9 97.4c-2.6 1.1-2.9 3.6-.3 3.6.8 0 1.4.4 1.4 1 0 1.1 4.3 1.4 5.4.3.3-.4 1.2-.8 1.9-.9.7-.1 2.3-.5 3.7-.7 1.4-.3 3.1-.6 3.8-.6.6-.1 1.2-.5 1.2-1 0-1.7-9-.4-11.1 1.5-2.1 1.9-2.1 1.9-1.8-.1.2-1.1 1-2.5 1.8-3.1 1.2-.9 1-1.1-1-1.1-1.3 0-3.6.5-5 1.1zm2.8 2.2c-.3.3-1.2.4-1.9.1-.8-.3-.5-.6.6-.6 1.1-.1 1.7.2 1.3.5zm8.3-.2c0 .2-.7.7-1.6 1-.8.3-1.2.2-.9-.4.6-1 2.5-1.4 2.5-.6zM459.1 97.9c-.7.5-.9 1.1-.4 1.4.5.3 1.5.2 2.2-.2.7-.5.9-1.1.4-1.4-.5-.3-1.5-.2-2.2.2zM463.2 99.2c-.6.6-1.2 1.7-1.2 2.4s-.6 1.5-1.2 1.7c-.7.3-.3.6 1 .6 1.3.1 2.1.5 1.8 1-.3.5 1.1 1.6 3.2 2.4 3.3 1.4 3.9 1.3 5.5-.1.9-.8 1.4-1.8 1.1-2.1-.4-.3-.9 0-1.1.6-.6 1.5-4.2 1.7-6.3.3-1.3-.9-1.3-1.1 0-2 .8-.5 2.9-.8 4.5-.5 2.3.4 2.5.3 1-.4-1.1-.4-2-1.7-2-2.7 0-2.3-4.4-3.1-6.3-1.2zm5.3.8c.3.6-.6 1.5-2 2-3.4 1.3-3.5 1.3-3.5-.4 0-2.2 4.3-3.5 5.5-1.6zM384.1 100c-1 .5-.9.9.2 1.3.8.3 2 0 2.6-.6.9-.9 1.1-.8.6.5-.4 1-.3 1.8.2 1.8 2 0 7.3-2.2 7.3-3 0-1.1-9.2-1.1-10.9 0zM339.7 100.9c-1.7.6-1.7.8-.3 2 2.1 1.8 2 4.3-.4 8.4-1.6 2.7-2.6 3.4-4.2 2.9-2-.5-2-.5.3-1.8 1.3-.7 1.8-1.3 1-1.4-1 0-1.1-.3-.2-1.4.9-1.1.7-1.5-.8-1.9-1.1-.2-2.4 0-2.9.5-.6.6-1.7.5-3-.3-2.8-1.7-4.1-.3-1.7 1.9 1 .9 1.4 1.1 1 .3-.5-.9-.3-1.2.6-.9.8.3 1.6 1.3 1.8 2.4.3 2.1 4.1 6.1 4.1 4.5 0-.6.6-.8 1.3-.6.7.3 2.1-1 3.1-3 2.1-3.9 3.6-4.5 3.6-1.6 0 2.6 1.5 3.4 4.8 2.6l2.7-.7-2.8-2.4c-1.6-1.3-3.3-2.1-3.9-1.8-.6.4-.9.1-.6-.6.2-.8 2.1-1.5 4.2-1.7 3.7-.3 6.6-1.7 6.6-3.3 0-1.2-7.9-2.9-8.6-1.9-.3.5-1.2.5-2.2 0-.9-.5-2.5-.5-3.5-.2zm2.8 1.1c.3.5.1 1-.4 1-.6 0-1.1-.5-1.1-1 0-.6.2-1 .4-1 .3 0 .8.4 1.1 1zm9.4.9c.7.5.9 1.1.4 1.4-1.5.9-8.1 1.2-8.9.4-.4-.4 0-.7.9-.7 1 0 1.7-.5 1.7-1 0-1.2 4-1.3 5.9-.1zm-3.9 9.3c0 .5-.9.8-2 .8-1.3 0-2-.7-2-2 0-1.8.2-1.9 2-.8 1.1.7 2 1.6 2 2zM396 102c0 .5.5 1 1 1 .6 0 1-.5 1-1 0-.6-.4-1-1-1-.5 0-1 .4-1 1zM140 102.4c0 .2.7.9 1.5 1.6 1.2 1 1.5 1 1.5-.4 0-.9-.7-1.6-1.5-1.6s-1.5.2-1.5.4z"/><path d="M334 103.5c-.8.9-1.7 1.2-2.2.7-1.1-1.1-6-.3-5.3.8.3.5 2.2.7 4.3.5 2-.1 4.1.2 4.5.9.6.8 1 .8 1.3-.1.3-.7 1.3-.9 2.2-.6 1.1.4.8-.2-.7-1.5-2.9-2.6-2.6-2.6-4.1-.7zM132 107c-1.2 2.3.4 3.4 6.3 4.5 2.7.5 3.7.4 3.7-.5 0-1.2-3.6-4.9-4.9-5.1-.3 0-1.4-.2-2.4-.4-.9-.2-2.2.5-2.7 1.5zm8.1 2.6c1.3 1.6 1.2 1.7-1.1 1.1-1.4-.4-2.8-.7-3.2-.7-.5 0-.8-.9-.8-2 0-1.7.3-1.9 1.8-1.1 1 .5 2.5 1.8 3.3 2.7zM474.3 107.7c-2.2 4.7-1.7 5.1 5 3.2 5.1-1.4 4.7-4.9-.5-4-.5 0-.8-.4-.8-.9 0-2-2.5-.9-3.7 1.7zm4.3.2c4.9-.9 3.6 1.5-1.4 2.6-3.2.7-3.2.6-2-1.9.7-1.6 1.4-2.2 1.8-1.6.4.6 1.1 1 1.6.9zM166.3 107.5c0 1 1 1.5 2.6 1.5 2.5-.1 2.5-.1.7-1.5-2.5-1.9-3.3-1.9-3.3 0zM119.3 109.4c-.4.8-1.7 1.6-2.8 1.8-1.7.3-1.5.6 1.3 2 3.3 1.7 3.4 1.7 5.8-.7 1.4-1.4 2.2-3 1.9-3.5-.9-1.5-5.3-1.2-6.2.4zm4.4.2c-.3.3-1.2.4-1.9.1-.8-.3-.5-.6.6-.6 1.1-.1 1.7.2 1.3.5zm-.7 2.3c0 .5-.7 1.1-1.5 1.5-1.5.5-2-.5-.8-1.7.9-1 2.3-.9 2.3.2zM130.7 111.6c-.9 1 .4 3.4 1.9 3.4.8 0 1.4-.4 1.4-.9 0-1.2-2.6-3.2-3.3-2.5zM475.5 114.6c-2 1.8-4.3 2.8-6.8 3-4.2.3-14.4 4-16.4 6-.8.7-.8 1.5-.2 2.1.7.7-.4 1.2-3.2 1.6-5.4.7-7.1 2.3-4.5 4.3 2.4 1.7 1.8 2.4-1.1 1.3-1.6-.6-2.1-1.3-1.6-2.6.6-1.4.2-1.3-2.4.5s-3.2 1.9-3.7.7c-.9-2.3-2.3-1.8-3.4 1.2l-.9 2.8-1.3-3.8c-.8-2-1.9-3.7-2.6-3.7-1.5 0-5.6 5.4-7.1 9.3-1 2.8-.9 3.4.8 4.9 1 .9 1.9 1.9 1.9 2.2 0 1.2-2.1.5-7-2.4-2.8-1.6-6.2-3.3-7.6-3.6-2.5-.6-2.5-.5-1.4 1.6.9 1.7 1.4 1.9 2 1 .6-1 2.4-.4 7.4 2.4 5.8 3.3 6.7 3.5 7.3 2 .4-1 0-2.2-1-2.9-2.3-1.7-2.1-5.7.4-8.9 3.6-4.6 7.4-2.9 6.3 2.9-.2 1.4 0 4.2.5 6.1.8 3 .7 3.8-.9 5.4-1.1 1.1-1.7 2.6-1.4 3.4.9 2.4 5.2-.9 6.2-4.7l.8-3.1 2.7 3c1.9 2.1 2.5 3.4 2 4.9-.4 1.1-.7 8.9-.7 17.2.1 14.8 0 15.3-2 15.4-1.2 0-2.9.2-3.8.4-1 .2-4.3.6-7.5.9-3.1.3-5.8.8-6.1 1-.2.3 4.1 2.7 9.6 5.5 9 4.5 10 5.3 10.6 8.3.8 4 4 8 8.2 10.1 2.5 1.3 6.6 1.5 24.5 1.2 11.8-.1 28.1-.4 36.4-.5 15.7-.2 18.4-.8 22.6-5.3 4.1-4.3 4.1-4.3 5.4-39.2.7-18.4 0-21.3-6.1-26.2-5.2-4.1-3.9-5.5 4.4-4.9l6.7.5-6.9-1c-5.5-.9-7-.8-7.7.3-.5.7-1.6 1.4-2.6 1.5-1 .1-4 .4-6.8.7-2.7.2-10.2.7-16.5 1.1-6.3.3-14 .8-17 1-3 .3-10 .7-15.5 1-18.2 1.1-19.7 1.4-24.1 4.5-3.5 2.5-4.3 2.7-4.8 1.4-.3-.8-2.2-2.2-4.2-3-3.1-1.3-3.5-1.9-3.1-4 .3-2 .1-2.4-1.1-1.9-1.3.5-1.3.3.1-1.3.9-1 1.7-2.4 1.7-3 0-.6.5-1.4 1.1-1.7.6-.4.9.3.7 2.1-.2 2.2.2 2.8 2.5 3.5 2 .5 2.7.4 2.4-.4-.2-.7-1.1-1.2-2-1.2-2.5 0-2.8-1.1-.4-1.4 3.4-.4 5-.4 7.5.4 2.7.9 3.1-1.5.6-3.6-1.4-1.2-1.4-1.4.3-2 1-.4 3.3-.8 5.1-.8 2.7-.1 3.2-.5 3.2-2.5 0-1.9.9-2.7 4.1-4 2.3-.9 4.4-1.5 4.6-1.2.3.3 1.3-.2 2.1-1.1.9-.9 1.8-1.1 1.9-.6.5 1.5 6.2.3 7.6-1.7.6-.9 2.2-2.2 3.4-2.8 2.2-1.2 5.1-1.6 4.1-.6-.4.3.2 1.4 1.3 2.5 1.3 1.3 2.7 1.7 4.4 1.3 7.3-1.8 10.6 3.9 4.1 7-1.9.9-3.7 1.6-4.1 1.6-.4 0-1.8.9-3.2 2l-2.6 2h2.7c3.6 0 6.8-1.8 5.9-3.3-.4-.7 0-.7 1 .2.9.7 1.7 1 1.7.5s.6-.2 1.3.8c1.3 1.6 6.7 1.5 6.7-.3 0-.5-1.1-.4-2.5.1-2.7 1-3 .2-2.6-6.7.3-3.9-2.6-5.8-7.6-5-2 .4-3.1.2-2.8-.4.4-.5-.1-.9-.9-.9-.9 0-1.5-.6-1.3-1.3.5-2.5-4.8-1.9-7.8.9zM488 128c-.8.5-1.9 1-2.5 1-.5 0-.3-.5.5-1s2-1 2.5-1c.6 0 .3.5-.5 1zm-55 17.2c0 2.3-2.6 5.8-4.3 5.8-.6 0-.1-1 1.1-2.3 1.5-1.6 1.9-3 1.5-4.6-.4-1.7-.3-2.2.5-1.7.7.4 1.2 1.7 1.2 2.8zM109 113.7c-2 .7-6 4.4-6 5.5 0 .5.4.6 1 .3.5-.3 1.9-.1 3.1.5 2.3 1.3 5.4.6 4.4-1-.5-.8-1.2-.7-2.3.2-1.3 1.1-1.4 1.1-.7-.1.5-.9.4-1.2-.3-.7-.6.3-1.4.1-1.8-.5-.3-.6 0-1.5.7-2 2.1-1.3 2.9-1.1 2.2.8-.4.9-.2 1.4.3 1 .6-.3 1.6-.2 2.4.3 1.1.7 1.1 1.1.1 2.3-1.6 2 .2 3.1 3.6 2.2 2.3-.5 2.5-.4 1.4.9-1.6 2-1.1 2 2.4.2 3.1-1.6 2.3-2.5-2.3-2.1-2.6.2-3 0-2.2-1 .8-.9.8-1.5 0-2-.5-.3-.7-1.7-.4-3.1.5-2 .3-2.4-1.7-2.3-1.3 0-3.1.3-3.9.6zm5 1.5c0 1.5-1.8 1.7-3 .3-.9-1.1-.8-1.4.9-1.2 1.2.1 2.1.5 2.1.9z"/><path d="M363.2 117c-3.9 3.5-4.6 3.8-7 2.8-4.1-1.7-34.5-1.9-42.9-.3-11 2.1-19.6 6.8-28.3 15.5-4.1 4.1-8.4 9.4-9.4 11.6-1.4 3.2-2.5 4.3-4.7 4.8-2.8.5-4.2 3.6-1.6 3.6.8 0 .7.4-.3 1-1.3.8-1.2 1 .4 1 1.2 0 1.6.5 1.2 1.6-.3.9-.9 3.9-1.2 6.7-.3 2.9-1 5.6-1.5 6.1-.5.6-.9 5.4-.9 10.7 0 9.7 0 9.8-2.7 11.1-4.6 2.2-5.1 4.5-5.1 24.5 0 19.2-.8 23.5-3.2 16.3-1.8-5.4-4.2-6.8-7-4-1.7 1.7-2.1 1.8-2.6.6-1.1-2.8-4.3-2.8-9.8-.2-5.4 2.5-5.6 2.8-11 13.8-3 6.2-6 13.2-6.6 15.5-1.7 6.6-1.9 6.3 24.3 33.6 8.9 9.3 16.2 17.4 16.2 17.9 0 .6-.7 1.4-1.5 1.8-.8.5-4.3 2.4-7.8 4.4-6.6 3.7-6.6 3.6-2-2.8 3.3-4.6 3.7-8.6.9-8.6-1.1 0-3.5-.9-5.3-1.9-1.8-1.1-4.4-2.1-5.8-2.3-1.4-.2-3.7-1.2-5.2-2.2-1.6-1-3.4-1.6-4.2-1.3-.8.3-1.7-.1-2-.9-.3-.9-1.1-1.2-1.7-.8-.8.4-.9 0-.4-1.5.4-1.2.2-2.1-.4-2.1-.6 0-1.1 1.3-1.1 3 0 2.2.4 2.8 1.5 2.4 1-.4 1.5 0 1.5 1.2 0 1.4.3 1.5 1.2.6 1.7-1.7 3.4-1.5 5.5.6 1 1 3.1 1.9 4.7 2 1.6.1 4.3 1.1 6.1 2.2 1.8 1.1 4 2 4.9 2 4.7 0-2.4 11.1-15.3 23.8-10 9.7-19.6 23.5-29.9 42.8-.7 1.3-2.2 2.4-3.3 2.4-2 0-2.6 2.4-.9 3.5.6.4.3 1.6-1 3.2-1.1 1.4-2 3.2-2 4 0 1.8-3.2 6.5-7.5 11-2.2 2.4-3.4 3-4.4 2.4-1.1-.7-1.2-1.3-.3-2.3.8-1 .8-1.8.1-2.5-.8-.8-.8-1.3 0-1.8.8-.4.6-1.1-.4-2.1-1.5-1.6-1.1-3.9.5-2.9s3.2-9.6 1.7-11.1c-.4-.4-.7-.2-.7.4 0 .7-.4 1.2-.9 1.2-.4 0-.7-1.2-.5-2.8.4-2.7.4-2.7-.5-.2-.4 1.4-.4 3 .2 3.8.6.8.6 1.2-.2 1.2-.7 0-.9.5-.6 1 .4.6 1.1.8 1.6.5.5-.4.9.1.9.9 0 .9-.3 1.6-.8 1.6-1.7 0-3.2 4-2.2 6 .7 1.4.7 2 0 2-1.1 0-.4 6.4 1 8.9.5.9-1 3.6-4.1 7.7-10.9 14.5-16.2 26.9-16.1 38.4 0 17.8 10.8 31 25.2 31 10.4 0 24.7-10.2 36-25.6 2.4-3.2 5.8-7.6 7.6-9.6l3.3-3.7.7 3.7c.4 2 .8 4.4.9 5.2.2.8 1 5.3 1.9 10 .8 4.7 1.8 10.3 2.2 12.5.3 2.2 1.9 11.6 3.4 21 2.7 15.6 4.6 29.3 4.3 30.5-.1.3-.4 3-.8 6-.9 7.8-4.5 33.1-5 35.5-.4 2-1.2 2-55.7 1.9-30.4-.1-55.9-.2-56.6-.3-1-.1-1.2-1.6-.8-5.9.3-3.1.8-8.9 1.1-12.7.4-3.9.8-9.3 1.1-12 .3-2.8.7-7.7.9-11 .3-3.3.7-9.2 1.1-13 .3-3.9.7-8.5.9-10.3.1-1.7 1.7-5.9 3.4-9.2 2.3-4.3 3.3-7.4 3.3-10.6 0-2.5-.2-4.8-.5-5-.3-.3.4-2.7 1.4-5.5 1.1-2.7 1.9-5.7 1.8-6.7 0-.9-.8.8-1.8 3.8-1.4 4.5-2.1 5.4-3.7 5.2-4.8-.9-11.3-.2-15.8 1.8-2.7 1.1-5 1.9-5.2 1.8-.3-.4 7.8-14.2 8.8-14.9.5-.3 1-1.4 1.2-2.5.4-2 2.3-6.6 5.8-14.3 7.7-17 10.6-34.5 7.2-43-2.8-7.1-8.6-10-12.6-6.4-1.7 1.5-1.9 1.5-3.6-.5-1-1.2-3-2.5-4.4-3.1-1.9-.7-2.7-2.1-3.7-6.4-2.2-10.2-10.6-20.7-16.4-20.7-3.1 0-8.2 6.2-10.2 12.6-1.4 4.2-1.9 9-2 16.9 0 10.3 1 23.8 2 26.7.2.7.6 2.9.9 4.8.3 1.9 1.8 8.2 3.2 14 1.4 5.8 2.8 11.6 3.1 13 .5 2.1-.5 1.4-5.3-3.4-12.4-12.4-22-12.2-22.8.6-.4 7.1 7 31.9 12 40.6 1.4 2.4 2.3 4.6 1.9 5-.3.4-2.1.7-3.8.7-3 0-3.2.2-3.1 3.5.1 3.4 1.2 17.9 1.9 25 .2 1.9.6 7.3 1 12s.8 9.8 1 11.5c.1 1.6.5 6.4.9 10.5l.7 7.5h-21c-11.5 0-20.8.2-20.6.5.4.7 567.2.7 567.8 0 .3-.3-38.6-.5-86.3-.5h-86.9l-.6-4c-.4-2.2-.8-5.1-1-6.5-.2-1.4-.9-5.7-1.5-9.5-.6-3.9-1.4-9-1.7-11.5-.3-2.5-.8-6.3-1.2-8.5-.4-2.2-.6-6.7-.5-10 .2-6.3 1.4-19.8 1.7-20.1.1-.1 4 .6 8.7 1.6 7.5 1.5 15.2 1.8 27.5.8.6 0 5.4 1 10.9 2.2 17.6 3.9 21 4.3 33.6 4.4 11.6 0 16.7-.7 22.8-3.4 11.1-5 16.2-14.1 15.7-28.6-.5-13.9-7.1-30.6-16.6-41.9-2.3-2.8-16.1-23-30.7-45-42.2-63.7-46.5-69.4-54.6-73-7.1-3.1-15.5-4.6-26.6-4.9l-9.5-.2-5.4-9c-3.1-4.9-6.3-11.6-7.3-14.9-1-3.3-1.6-4.4-1.3-2.5.5 3.5.5 3.5-1.1 1.2-.9-1.3-1.7-3.6-1.8-5.1-.1-1.5-.9-3.5-1.9-4.5-.9-1-1.7-2.3-1.7-2.9 0-.7-1.3-4.1-2.9-7.6-2.7-5.9-2.8-6.6-1.5-9.7.8-1.8 1.5-6 1.6-9.4.2-3.3.5-6 .6-6 .2 0 1.6.8 3 1.8 4.1 2.8 12 2.1 15-1.3 2-2.3 2.2-3.7 2.3-12.8.2-28.2-.2-30.7-5.1-32.7-2.8-1.1-2.8-1.3-2.9-10.7-.1-5.2-.6-10.3-1.1-11.3-.6-1-1-3.1-1-4.7 0-2.4-3.1-12.2-5.4-17.4-1-2.3 2.7-3.4 10.7-3.4 5.4.1 6.7-.2 6.7-1.4 0-1-.3-1.2-.8-.6-.8 1.1-9.1 1.4-10.8.3-.6-.4-2-.1-3 .7-2.7 2.1-4.7 1.9-3.9-.4.3-1.2 0-2.1-1-2.5-1.1-.4-1.4-.2-.8.7.4.6-2.4-2-6.2-6-6.8-6.9-14.9-12.6-20-13.9-1.4-.3-2.5-.9-2.5-1.2 0-.3 1.7-2.3 3.7-4.4 4.8-4.9 4-4.8-1.5.2zm-8.2 5.6c1.7 1.7-5.7 6.5-8.5 5.4-1.2-.4-6.6-.8-12.1-.8-18.8.1-35.2 6.3-46.1 17.5-3.3 3.4-6.7 6.3-7.5 6.3-.8 0-1.9.5-2.6 1.2-2.4 2.4-2.1 0 .5-4.8 6.8-12.1 20.7-22 35.8-25.3 5.7-1.2 39.1-.9 40.5.5zm15 6.1c15.8 9.3 27.7 31.1 24.5 45.1l-.8 3.2-3.6-3.5c-3.3-3.2-3.7-4.1-3.9-9.8-.2-3.7-1.1-7.7-2.3-10-1.9-3.7-2.4-5.6-1.3-4.4.3.3 1.4-.2 2.5-1.1 1.8-1.6 1.8-1.8.2-2.9-2.1-1.6-5.3-1.7-5.3-.2 0 .6.8.8 1.9.4 2.3-.7 3.8 1 1.6 1.9-2 .7-12.8-9-13.6-12.3-.6-2.3-.7-2.4-.8-.4-.1 1.9-.3 2.1-2.3 1-4.9-2.6-5-2.8-2.7-4.8 1.2-1 1.7-1.9 1.2-1.9-.6 0-1.6.7-2.3 1.5-1.6 1.9-3.5 1.8-8.5-.4l-3.9-1.7 3.2-1.9c1.8-1.1 3.2-2.3 3.2-2.7 0-1.1 7.7 1.9 13 4.9zM272 153c0 .5-.8 1-1.7 1-1.5 0-1.6-.2-.3-1 1.9-1.2 2-1.2 2 0zm9.5.7c-.4 1-.9 2.5-1.2 3.5-.5 1.6-5 3.4-6 2.4-1.2-1.1.8-5.2 2.9-6.2 3.6-1.8 5.1-1.7 4.3.3zm-2.5 7.7c-.8.7-2.7 1.6-4.2 2-2.2.5-2.6.3-2.2-.8.5-1.4 2.5-2.1 6.4-2.5 1.3-.1 1.3.1 0 1.3zm-1.7 22.2c-1.7 1.3-1.7 1.4 0 .8 1.5-.5 1.7.1 1.7 5 0 3.1-.4 5.6-1 5.6-.5 0-1-.4-1-.9s-.9-1.1-2-1.4c-1.8-.5-2-1.4-2-9.9 0-5.1-.4-9.9-.8-10.6-.5-.7-.7-2.6-.4-4.2.3-2.4 1.1-3.2 3.6-3.8l3.1-.8.3 9.4c.2 8.1 0 9.6-1.5 10.8zm116.7 1.3c0 6.3-.2 6.7-3.4 9.3l-3.3 2.7-.3-8.2c-.2-8.5-.2-14.5-.1-16.1.1-.6 1.7.5 3.6 2.4 3.3 3.2 3.5 3.8 3.5 9.9zm-114.2 53.3c.6 7.5.8 21.8.2 24.4-.4 1.7-.4 3.8.1 4.5.8 1.3 1.3-3.6 1.1-9.9-.1-1.2 0-2.2.2-2.2.1 0 1.6 2.1 3.3 4.7 4.7 7.2 19.6 20.3 23.1 20.3.8 0 2.1 3.1 2.2 5.2 0 .4-2 1-4.5 1.4-2.5.3-4.8 1-5 1.5-.3.4.2.6 1.2.4 8.5-1.8 8-1.9 8.6 1.2.3 1.5.5 6.5.4 11.1-.3 12.1-2.3 13.1-17.3 8.6-5.4-1.5-6.3-2.2-7.3-5.1-1.1-2.9-5.7-9.1-13.7-18.3-1.2-1.4-4-4.7-6.2-7.4l-4-4.8.6-7.2c.3-3.9.6-11.2.6-16.2l.1-9.1 5.7.1c4.7 0 6.2-.4 8-2.2 2.6-2.6 2.4-2.5 2.6-1zM201 378c0 .5-.4 1-1 1-.5 0-1-.5-1-1 0-.6.5-1 1-1 .6 0 1 .4 1 1zm-78 17.5 2.3 2.4-2.3 4.8c-1.2 2.6-3.3 8.8-4.6 13.8l-2.3 9 .7-9.5c.3-5.2.6-12.5.6-16.3 0-7.6 1.4-8.7 5.6-4.2zm326.6 27.2c4.8 6.5 12.9 17 17.9 23.4l9.2 11.5-7.3 4.7-7.4 4.6-12.7-3.9c-7-2.2-13.3-4-14-4-1.2 0-1.2-.9.2-11.5.2-2.2.7-6.3 1-9 .3-2.8.8-6.4 1-8 .2-1.7.7-5.3 1-8 .8-7 1.5-11.5 1.9-11.5.2 0 4.3 5.3 9.2 11.7z"/><path d="M386 149.5c-1.1 1.3-1 1.4.4.9.9-.3 1.6-1 1.6-1.5 0-1.3-.6-1.1-2 .6zM280.1 271.7c1.4 4.2 8 12.5 11.4 14.4 4.3 2.4 7.5 3.3 7.5 1.9 0-.6-.3-.9-.8-.6-1.1.7-6.4-1.9-9.2-4.6-3.2-3-8-10.3-8-12.3 0-.8-.4-1.5-.9-1.5-.6 0-.6 1 0 2.7zM413 116.9c-7.5 2.4-7.9 2.6-14.3 10.2-5.5 6.6-5.5 6.7-3.6 8.5 1 .9 1.9 1.4 1.9 1 0-.4 1 0 2.2.8 2.4 1.7 5.8 2.1 5.8.8 0-.5-.9-1.7-2-2.7-2-1.8-2-1.8.3-5.8 1.8-3.2 3.8-4.7 10.9-8.3 4.7-2.4 8.9-4.8 9.3-5.4 1-1.5-4.3-1.1-10.5.9zm8-.4c0 .3-3.3 2.1-7.4 4.1-10.5 5-15 11.1-11.3 15.1 1.6 1.9 1.7 2.3.5 2.3-.8 0-2.7-.9-4-2-1.4-1-2.8-1.6-3.2-1.3-.3.3-.6.1-.6-.6s.6-1.8 1.3-2.5c.6-.7 3.1-3.6 5.5-6.4 4.2-4.9 7.5-6.7 15.7-8.5 3.1-.7 3.5-.7 3.5-.2zM124.4 118.6l.7 2.6-3-2.1c-1.6-1.2-4-2.1-5.3-2-2.2.1-2.2.1.3.9 1.4.4 3.7 1.5 5.1 2.4 2.8 1.8 4.3.9 3.2-1.8-.7-1.9.5-2 2.9-.2 1.1.9 1.5 2 1 3.1-.4 1.3-.3 1.6.5 1.1 1.9-1.2 1.4-3.3-1.3-5-3.6-2.4-4.8-2-4.1 1zM541 119.2c0 .4.9.8 2 .8s2 .4 2 .9c0 2-7.4 2.9-8.5 1.1-.3-.6.4-1.4 1.7-1.9 1.3-.6 1.8-1 1.1-1-2.1-.2-4.3 1.1-4.3 2.5 0 1.9 4.8 2.9 8.1 1.7 1.9-.7 3.1-.7 3.8 0 1.2 1.2 2.7-1.6 1.7-3.1-.7-1.2-7.6-2.1-7.6-1zm7 1.8c0 .5-.4 1-1 1-.5 0-1-.5-1-1 0-.6.5-1 1-1 .6 0 1 .4 1 1zM551.2 121.9c-1 .6-1 1 .2 2 .9.7 1.7.8 2 .2.3-.5 0-1.2-.6-1.4-.7-.3.2-.6 2-.6 2-.1 3.1.3 2.7.9-.4.6-1.1.8-1.6.5-.5-.4-.9-.1-.9.5 0 .7.7.9 1.6.6.9-.3 1.8-.6 2-.6.2 0 .4-.7.4-1.5 0-1.7-5.5-2.1-7.8-.6z"/><path d="M122.8 123.3c-2.1.6-3.8 1.4-3.8 1.8 0 .4 2 .1 4.5-.8 2.5-.8 4.5-1.7 4.5-1.9 0-.5-.6-.4-5.2.9zM540.7 125.6c-1.1 1.1.5 3.3 3.4 4.8 2.7 1.4 2.9 1.3 2.9-.6 0-1.1-.8-2.2-2-2.5-1.1-.3-2-.9-2-1.4 0-1-1.4-1.2-2.3-.3zm4 3c-.3.3-1.2.4-1.9.1-.8-.3-.5-.6.6-.6 1.1-.1 1.7.2 1.3.5zM513.3 127.9c-2.1 2.2-6.8 2.5-8.4.5-.6-.8-1.7-1.4-2.3-1.4-.6.1 0 1 1.3 2 3 2.6 7.8 2.6 9.9 0 1.7-2 1.7-2 5 .1 1.7 1.2 3.2 2.5 3.2 3.1 0 .5-.5.6-1.1.2-.6-.4-.5.3.2 1.7l1.4 2.4.3-2.3c.4-2.7-1.1-4.8-4.9-6.8-2.6-1.3-3-1.2-4.6.5zM548.4 132.6c0 1.8.4 2.3 1.6 1.8 3.1-1.3 6.3-1.7 5.7-.7-.7 1.2.7 2.6 3.6 3.6.9.4 1.7.2 1.7-.3 0-.6-.9-1-2-1s-1.9-.3-1.9-.8c.4-2.3-.4-3.2-2.7-3.2-1.4 0-3.3-.4-4.3-.9-1.4-.8-1.7-.5-1.7 1.5zM539.1 131.9c-1 .7-1 1-.1 1.6.7.4 1.5.3 1.9-.3.3-.5 1.5-1.2 2.6-1.5 1.7-.4 1.6-.5-.5-.6-1.4 0-3.1.3-3.9.8zM607.3 135.6c-2.5 1.1-1.2 2.5 2 2.2 1.7-.2 3.2-.8 3.2-1.3 0-1.1-3.3-1.7-5.2-.9zm4.4 1c-.3.3-1.2.4-1.9.1-.8-.3-.5-.6.6-.6 1.1-.1 1.7.2 1.3.5zM42 137.5c-3.6 2-9.1 4.5-10 4.5-1.5 0-3 2.8-2.4 4.3.3.9 2.2 2.2 4.2 3.1 2 .8 3.1 1.6 2.5 1.7-.7.1-1.7.3-2.3.4-.5.1-1.8.3-2.7.4-1 .1-2.5.5-3.3 1.1-1.2.7-1.1 1.2.5 3s2.8 2.1 5.7 1.7c4-.5 4.8.2 2.3 2.3-.9.7-1.3 1.5-1 1.8.7.7 3.4-2.9 3.5-4.6 0-.9-1.1-1.1-4-.7-2.9.4-4.5.2-5.6-1-1.7-1.7-1.2-2.1 3.8-2.9 1.5-.3 3.2-.7 3.7-1 .5-.4 1.1-.1 1.3.6.3.9.6.9 1.2 0 .4-.7-1-2-4.1-3.4-2.6-1.3-4.8-2.8-5-3.3-.2-.6 2.9-2.6 6.9-4.5 8.3-3.9 8.3-3.8 7.7-4.5-.3-.2-1.6.2-2.9 1zM46 137.2c0 .4.3.8.8.8.4 0 2.4.4 4.5.9 2 .5 3.7.6 3.7.2 0-.3-2-1.1-4.5-1.7-2.5-.6-4.5-.7-4.5-.2zM566.3 137.9c3.2.4 5.6 1.5 7.6 3.3 1.6 1.5 3.2 2.4 3.6 2 1.3-1.4 10-1 11.7.5 1.9 1.7 3.8 1 3.8-1.4 0-1.3.9-1.5 5.3-1 5.9.6 12.2 3.5 16.8 7.8 1.6 1.5 3.5 2.6 4.2 2.4.7-.3 1.9 0 2.7.5 1.3.9 1.3 1.1 0 2.1-1.2.8-1.2 1 .5.7 3.3-.5 2.3-2.9-2-4.7-2.2-.9-6.2-3.1-9-4.9-8.6-5.6-17-6.9-19.9-3-1.1 1.5-1.5 1.7-1.2.6.6-2-1.1-2.7-4.4-1.8-4.2 1.2-9.6.4-12.8-1.9-2.1-1.5-4.3-2.1-7.4-1.9l-4.3.1 4.8.6zM63 140.6c4.1.7 9.9 2 12.8 2.7 4.5 1.2 5.4 1.2 5.9.1.3-.8 1.5-1.4 2.7-1.5 1.2 0 1.5-.3.8-.6-.8-.3-2.4 0-3.6.6-1.7 1-4 .8-11.4-.8-5-1.2-10.4-2.1-11.9-2-1.6 0 .6.7 4.7 1.5zM424 150.8c0 .5.7 1.3 1.6 1.6 1 .4 1.4.1 1.2-.6-.5-1.5-2.8-2.3-2.8-1zM622 161c0 .5.3 1 .8 1.1.4 0 1.5.2 2.5.4 2.1.4 2.3-1.1.1-1.9-2.3-.9-3.4-.7-3.4.4zM30.6 163.9c-1.1 1.2-1.4 2.1-.7 2.6 1.7 1 1.3 3.5-.4 2.9-.8-.4-1.5-.1-1.5.4 0 1.6 1.4 2.2 2.9 1.3 2-1.3 4.9-.2 5.5 2.1.4 1.8 1 2 4 1.5 3.2-.5 3.5-.4 2.7 1.1-.5.9-2.3 3-4 4.6-1.7 1.7-3.1 3.3-3.1 3.8 0 .9 6.2-2.5 10.8-5.9l3.2-2.4v2.2c0 1.8.2 1.9 1.5.9 1.8-1.5 1.9-4.2.3-5.8-.9-.9-.9-1.5 0-2.4.9-.9 1.2-.8 1.2.6 0 1.2.5 1.6 1.6 1.2.9-.3 2.6-.9 3.9-1.2 1.7-.4 2.2-1.1 1.7-2.2-.5-1.4-.3-1.5.9-.5 1.3 1.1 4.3 1.7 6.4 1.4.9-.2-6.2-3.1-7.6-3.1-.4 0-.9.8-1.2 1.8-.2 1.1-1.4 2.2-2.7 2.5-2.1.5-2.1.5-.5-1.3 3.2-3.6 1-4.4-2.8-1-2 1.7-3.4 3.6-3.1 4.1.6 1-.7 2.5-5.3 5.8-4 2.7-4.1 2.1-.6-2.6l2.7-3.5-4.7.7c-4.3.7-4.7.6-4.7-1.4 0-1.9-1-2.6-3.3-2.2-.4.1-1.3-1-1.9-2.4-1-2.1-.8-2.8.8-4 1-.8 1.4-1.5.8-1.5-.6 0-1.9.9-2.8 1.9zm21.1 11.6c0 .8-.4 1.2-.9.9-.5-.3-.6-1-.3-1.5.9-1.3 1.2-1.1 1.2.6zM69 169.9c0 .5 1 .8 2.3.7 2.5-.2 9 4.2 8.1 5.5-.8 1.3 1 1.1 2.6-.4 1.2-1 1.2-.9.4.3-.6.8-1.4 2.3-1.8 3.4-.5 1.4-.2 1.7.9 1.2 1-.4 1.9.3 2.7 1.9.9 2 1.4 2.2 2.9 1.4 1.6-.8 1.9-.6 1.9 1.4 0 1.3 1.1 3.4 2.4 4.6 1.4 1.3 2.2 2.9 1.9 3.7-.3.8 0 1.4.6 1.4s2.2 1.8 3.6 4c2.2 3.4 2.5 5.1 2.5 12.5 0 9.8.5 11.1 7 18 2.5 2.7 5.9 7.7 7.4 10.9 2.6 5.4 9.4 14.1 10.3 13.2.3-.2-.5-2.3-1.6-4.7-2.9-5.9-2.6-6.1 1.9-.9l4 4.4-4.8 2.9c-6.4 4-12.8 11-16.3 17.8-3.4 6.8-4 9.2-4.6 18.8-2 29.1 26 52.6 54.7 46 6.6-1.5 16-6.3 20-10.3l3.6-3.4 3.9 3.3c3.5 2.8 3.9 3.8 4 7.6 0 5.8-1.4 20.9-2.1 22-.3.5 0 .9.5.9.6 0 1.1-1.5 1.2-3.3 0-1.7.2-3.9.3-4.7.2-.8.6-5.2 1-9.7l.7-8.2-4.2-4.6-4.2-4.5 2.6-3.8c4.2-6.1 6.7-12.7 7.4-19.6.6-6.2.8-6.7 4.4-9.1 2.1-1.4 4.1-2.5 4.3-2.5.3 0 2.2-1.2 4.3-2.6 3.3-2.2 3.9-2.3 4.9-.9.6.8 3.4 2.2 6.2 3 2.8.9 5.6 2.3 6.1 3.3 1 1.6 1 1.6 1.1 0 0-1.2-1.9-2.4-6-3.9-6.6-2.4-7.8-3.5-6.1-5.2 1.8-1.8 1.3-2.4-2.1-2.3-2.3.1-3.3-.4-3.3-1.4 0-1.2-1.2-1.4-5.8-1.2-4.2.2-6.2-.1-7.4-1.3-.8-.9-2.1-1.4-2.8-1.2-.6.3-2-.9-3-2.6-1-1.8-3.3-5.1-5.2-7.5-3.2-3.9-3.3-4.2-1.2-4 1.2.2 2.4-.2 2.6-.9.6-1.6-4.7-4.2-10-4.9-2.3-.4-5.4-1.3-6.9-2-3.6-1.9-13.5-4.1-17.5-3.9-3.9.1-4.5-2.3-1.4-5.4 1.5-1.5 2.9-1.8 6.5-1.5 2.8.3 4.6.1 4.6-.6 0-.5 1-1 2.3-1 4.9 0 6.6 1.2 8.3 5.6.9 2.4 2.1 4.4 2.5 4.4.5 0 .9-2.4 1-5.3.1-8.1.7-9.9 4.5-13.8 2.5-2.6 3.3-4.1 2.8-5.4-.5-1.3-.4-1.6.4-1.1 1.1.7 1.6-.5 1.3-3.1-.1-.6 1.6-2.1 3.7-3.3 2.2-1.3 4.5-3.6 5.3-5.4 1.3-2.9 1.7-3.1 6.9-3.1 3.7 0 6.4-.7 8.3-1.9 3.2-2.2 2.3-4.5-1.1-2.7-2.1 1.1-3.3.3-4.5-3.2-.4-.9-1.1-1.7-1.7-1.7-1.4 0-1.3.9.5 2.6 2.4 2.4 1.8 3.1-3.4 4.9-3.8 1.2-5.2 2.2-5.9 4.5-.7 1.8-1.9 3-3.4 3.2-1.3.2-2.2.9-2.1 1.5.1.6-1.1 1.7-2.7 2.5-2.7 1.1-3 1.8-2.8 4.9.1 3-.5 4.3-3 6.9-1.8 1.7-3.3 3.8-3.3 4.6-.1.8-.3 1.8-.4 2.4-.1.5-.3 3.1-.4 5.7l-.1 4.8-1.9-4.1c-1.9-4.2-3.9-5.4-9.3-5.4-1.5 0-2.9.4-3.3.9-.3.5-2 .8-3.8.7-4.6-.4-7.3 1.2-8.4 4.7-.7 2.7-1.5 3.3-4.8 3.8-2.2.4-5.3 1.3-7 1.9-2.9 1.1-3.2 1-7.9-4.1-2.7-2.9-5.3-6.5-5.8-8-.9-2.6-3.8-4.8-3.8-3 0 2 1.3 4.1 2.1 3.5.5-.3.6.2.3 1-.4.9.1 1.8 1 2.2.9.3 1.3 1 1 1.5-.2.5 0 1.8.6 2.9.6 1.1.7 2 .3 2-1.1 0-3.1-3.2-6.4-10-1.4-3.1-4.6-7.6-7.1-10-6.2-6.3-6.8-7.7-6.8-17.7 0-7.1-.4-9.4-2-12.1-1.3-2.1-1.6-3.2-.8-3 1.1.4 2.9 3.1 4.2 6.3.2.6.8.6 1.5-.1 1.3-1.2-1.8-4.9-9.3-10.9-2-1.7-4-4.4-4.5-6-.6-2.4-1.2-2.9-3.2-2.7-1.9.3-2.2.1-1.1-.9.6-.7 1.2-1.9 1.2-2.7 0-1.2-.3-1.2-1.7-.1-.9.8-1.4.9-1.1.4.4-.6 0-2.6-.8-4.5-1.1-2.5-1.7-3.1-2.3-2.1-.7 1.1-1.5.9-3.9-.9-3.1-2.3-8.2-3.6-8.2-2.1zM97 195c0 .5-.2 1-.4 1-.3 0-.8-.5-1.1-1-.3-.6-.1-1 .4-1 .6 0 1.1.4 1.1 1zm110 10.5c0 .6-5.7 3.5-7 3.5-.7 0-.6-.5.2-1.4.7-.8 1.6-1.2 2-.9.5.2 1.6-.1 2.5-.6 2.1-1.2 2.3-1.3 2.3-.6zM182.7 258c.2 0 .1.5-.2 1-.4.7-1.2.7-2.4 0-1-.5-2.1-.7-2.5-.5-.3.3-.4.2-.1-.2.3-.3-.3-1.2-1.3-2-1.3-1-.8-1 2.2.2 2.1.8 4 1.5 4.3 1.5zm15.5 20c4.7-.3 5.8-.1 5.8.9 0 1.4-12.9.8-13.5-.7-.9-2.4.6-3.4 2.5-1.7 1.1 1 3.3 1.6 5.2 1.5zM33 184c-.8.5-1.2 1.1-.9 1.4.2.3 1.1.1 1.9-.4.8-.5 1.2-1.1.9-1.4-.2-.3-1.1-.1-1.9.4zM27.5 187c-.3.5-.2 1 .4 1 .5 0 1.3-.5 1.6-1 .3-.6.2-1-.4-1-.5 0-1.3.4-1.6 1z"/><path d="M85 187.4c0 1.4 2.8 4.2 3.5 3.4.2-.2.2-1.4-.2-2.6-.6-2.4-3.3-3.1-3.3-.8zM543.8 186.7c-.3.4-.5 5-.6 10 0 8.3.2 9.3 1.7 9.3 1.4 0 1.7-.6 1.3-2.6-.3-1.8 0-3 1.1-3.5 1.4-.8 1.4-1.4 0-6.7-1.7-5.9-2.8-8-3.5-6.5zm2.8 12.2c-.6.2-1.3.7-1.6 1.2-.3.4-.5-2.3-.6-5.9v-6.7l1.7 5.5c1.2 3.9 1.3 5.6.5 5.9zm-1.9 5.3c-.3.8-.6.5-.6-.6-.1-1.1.2-1.7.5-1.3.3.3.4 1.2.1 1.9zM210.1 197.8c-.6 1.2-1.1 2.7-1.1 3.4 0 .7.7 0 1.5-1.6.9-1.6 1.3-3.1 1.1-3.3-.2-.3-.9.4-1.5 1.5zM541.8 210.8c-.9 2.1-1.6 4.4-1.6 5.2.2 2.9-3 8.8-5.1 9.5-1.2.3-2.1 1.1-2.1 1.6s-1 .9-2.3.9c-2.9 0-6.9 2.8-6.1 4.2.4.6.2.8-.4.4-1.7-1-2.3 1-.7 2.4 1.2 1 1.5 1 1.5 0 0-.8.3-1 .6-.7.4.4.1 1.4-.7 2.3-1.2 1.5-1.2 1.7.1 1.2.8-.3 1.5-1.7 1.5-3.1-.1-1.5.3-2.7.7-2.7.4 0 .8.7.8 1.6 0 1.5.2 1.5 2.5 0 1.4-.9 3-1.4 3.5-1.1.6.3 1-.1 1-.9 0-.9.8-1.5 1.8-1.4 4.5.4 5.1-.2 6.2-5.9.9-4.1.9-6.2.2-7.4-1.2-1.8.2-2.9 3.7-2.9 1 0 2.5-.8 3.4-1.8 2.1-2.3 2.2-3.3.3-2.6-.8.3-2.7-.1-4.3-.9-2.8-1.5-2.8-1.5-4.5 2.1zm6.2-.3c2.7 1.5 2.2 1.9-3.8 2.9l-3.2.6 1.6-2.5c1.9-2.9 2-2.9 5.4-1zm-5.5 12c-.8 5.2-2.9 7.8-5.5 7-1-.3-2.1-.1-2.5.5-.3.5-2.5 1-4.8 1-3.1 0-3.8-.3-2.7-1 .8-.5 2.3-1 3.2-1 2.9 0 8.7-4.4 9.4-7 .7-2.8 2.4-5.3 3.1-4.6.3.2.1 2.5-.2 5.1zM497.5 241.1c-5.9 2.2-11.6 7.2-14.4 12.7-2.5 4.8-3.1 7.9-3.2 15.7l-.1 6.1-9.1-.4-9.2-.3 9.3 6 9.2 6.1v10.2l-3.4-3.2c-7-6.6-15.4-9.9-10-3.9.9 1 1.7 2.9 1.8 4.1.1 1.3.7 2.2 1.4 2 .7-.1 1.2.9 1.2 2.5.1 2.5.2 2.6 1.1 1 .9-1.5.5-2.7-2-6.2-1.7-2.4-3.1-4.6-3.1-5 0-.3 2 .8 4.5 2.5 5.1 3.5 8.7 8 10.3 12.7 1.6 4.8-.7 4.3-5.2-.9-2-2.3-3.6-3.7-3.6-3.2 0 1.1 4.6 6 8.6 9.2 14 11.1 16.8 12.2 31 12.2 8.4 0 10.4.3 10.4 1.4 0 2.2-1.9 3-3.6 1.5-1.9-1.5-6.4.3-6.4 2.6 0 .9-.5 1.3-1 1-.6-.3-1.4.5-2 1.9-1.1 2.9-12.9 9.6-13.1 7.4-.1-.7-.5.3-1 2.2-.4 1.9-.6 4.3-.3 5.2.3 1 0 1.8-.5 1.8-.7 0-.5 1.4.5 3.7 1 2.1 1.8 5.3 2 7.1.1 1.8.5 3.6.8 3.9 1.2 1.2.6-5.8-.7-8.5-1-2.2-1.3-6.3-.8-12.5.1-.4 3-2.2 6.6-3.8 3.6-1.7 6.7-3.9 7-5 .3-1 1-1.8 1.6-1.6.5.1 1.5-.9 2.2-2.3 1.3-2.5 2.3-2.7 6.3-1.5 1.5.5 2.3 0 3.2-2 1-2.2 1.7-2.5 5.2-2.3 3.5.2 3.9.4 3.4 2.4-.6 2.5 2.4 5.1 6.6 5.6 2.4.3 2.8-.4 4.6-7 .6-1.9 4.8 3.5 6.3 7.8 1.1 3.5 4 7.5 9.4 13.3 1.5 1.7 2.7 3.6 2.7 4.4 0 .8-1.2 6.2-2.7 11.9-3.1 11.8-4.1 12.6-12.9 11.6-5.3-.6-8.5-3.4-9-7.9-.4-3.4-.9-3.7-2.5-1.6-1.2 1.4-1.2 1.6 0 .8 1-.6 1.2-.4.7.4-.8 1.2-1.3.9-7.1-4.2-1.6-1.5-3-1.8-6.9-1.3-2.7.3-5.4 1.1-6 1.7-.8.9-.6 1 .9.4 1.1-.4 3.6-.9 5.6-1.2 3.2-.5 4.2 0 7.8 3.2 2.2 2 3.8 4.2 3.4 4.8-.4.6.2.8 1.5.5 1.6-.5 2.7.1 4.3 2.3 1.5 2.2 2.9 2.9 5.2 2.9 1.8 0 3.8.4 4.6.9 1 .6 2.7.3 5.1-.9 3.4-1.7 3.8-2.4 6-10.7 3.4-13 3.5-14.8 1.2-17.1-4-4-10-12.8-11.2-16.4-.6-2.1-1.9-4.2-2.7-4.7-1.9-1-.9-3.1 1.6-3.1 3.1 0 8.4-3.2 12.2-7.2 2-2.1 3.9-3.5 4.3-3.1.3.4 1.7.8 2.9 1 2.2.3 2.2.3-.2-1.6-2.4-1.8-2.4-1.8-.7-6.8 2.6-7.7 2.2-38.7-.5-46-2.5-6.5-9.9-13.5-16.8-15.8-7.5-2.5-45.6-2.1-52.6.6zm44.5 82.6c0 4.9-1.2 5.6-5.3 3.7-5.5-2.6-4.3-6.4 2-6.4 2.9 0 3.3.3 3.3 2.7zM177 250.5c0 .8.4 1.5 1 1.5.5 0 .7-.7.4-1.5-.4-.8-.8-1.5-1-1.5-.2 0-.4.7-.4 1.5zM185 259.9c0 .7.5.9 1 .6 1.5-.9 7.1.5 6.4 1.6-.7 1.2-5.4 1.2-5.4 0 0-.5-.8-.8-1.7-.7-3.3.5-1.8 2 2.2 2.3 7.7.6 8.7-3.1 1.2-4.4-2.5-.4-3.7-.2-3.7.6z"/><path d="M195.8 263.2c.9.9 1.5.9 2.4 0 .9-.9.7-1.2-1.2-1.2s-2.1.3-1.2 1.2zM396.5 274c.4.6 1.1.8 1.6.5 1.4-.9 1.1-1.5-.7-1.5-.8 0-1.2.5-.9 1zM440.5 280.1c-.4.6 0 .9 1.1.7 2.1-.4 3.2 2.8 1.5 4.5-.8.8-1.1.5-1.1-1.1 0-1.2-.4-2.2-1-2.2-1.2 0 .3 4.3 1.8 4.8 1.4.4 2.5-3.3 1.7-5.8-.7-2.1-3-2.7-4-.9zM571 312c0 .5.5 1 1 1 .6 0 1 .6 1 1.2 0 .7 1.1 1.8 2.4 2.4 2.1 1 2.4.9 1.9-.5-.6-1.7-4.3-5-5.5-5.1-.5 0-.8.4-.8 1zM604.1 329.6c-1.3 1.3-1.8 2.4-1.2 2.4 1.5 0 5.2-3.8 4.3-4.4-.4-.2-1.8.6-3.1 2zM582.4 337.6c1.5 1.4 3.1 2.2 3.5 1.9.7-.8-3.6-4.5-5.3-4.5-.6 0 .2 1.2 1.8 2.6zM185.7 365.6c-2.4 8.9-1.5 9.2 1 .4 1.2-3.8 1.8-7 1.4-7-.4 0-1.5 3-2.4 6.6zM506.5 362.1c-3.8 1.6-5.4 1.8-6.7 1-1.2-.8-1.8-.8-1.8-.1 0 2.2 3.3 2.1 9.8-.3 3.7-1.4 6-2.6 5.2-2.6-.8 0-3.7.9-6.5 2zM596.6 367.1c.9 1.8 1.2 3.8.8 4.7-.4 1-.6 2.4-.5 3.3.1 1-1 2.1-2.8 2.8-4.2 1.8-8.4 6.9-8.4 10.3 0 1.5.2 3.1.6 3.4 1 1 9.7-7.7 10.4-10.3.3-1.5 1.1-2.2 1.9-1.9.8.3 2-.5 2.8-1.7 1.9-2.9 3.2-8.2 1.9-7.4-.6.4-2-.7-3.3-2.3-1.2-1.6-2.8-3.1-3.6-3.4-1.2-.4-1.1 0 .2 2.5zm4.5 3.8c1.5 1.6 1.5 2.2.2 5.2l-1.5 3.4-1.2-3c-.9-2.1-.9-3.5-.2-5.2.6-1.3 1.1-2.3 1.1-2.3s.8.8 1.6 1.9zm-5.2 9.3c-2.4 4.8-6.1 8.8-8 8.8-1 0-1.9-.3-1.9-.8 0-1.6 3.9-6.5 6.6-8.3 3.8-2.5 4.7-2.4 3.3.3zM548.1 380c1.4 4 5.4 4 5.4 0 0-2.1-.5-2.6-3.2-2.8-3.2-.3-3.2-.3-2.2 2.8zm4.9.3c0 2.3-3.3 1.9-3.8-.5-.2-1.2.3-1.6 1.7-1.5 1.3.1 2.1.8 2.1 2zM137.4 450c-2.2.9-9.4 7.5-9.4 8.7 0 .4 1.7-.9 3.8-2.9 6.2-5.9 11-7.2 11.3-2.9.4 4.5.7 6.2 1.3 6.8 1.1 1.2-.2-7.8-1.4-9.2-1.4-1.7-2.5-1.8-5.6-.5z"/></svg>