<?xml version="1.0" standalone="no"?>
<!DOCTYPE svg PUBLIC "-//W3C//DTD SVG 20010904//EN"
 "http://www.w3.org/TR/2001/REC-SVG-20010904/DTD/svg10.dtd">
<svg version="1.0" xmlns="http://www.w3.org/2000/svg"
 width="654.000000pt" height="654.000000pt" viewBox="0 0 654.000000 654.000000"
 preserveAspectRatio="xMidYMid meet">
<metadata>
Created by potrace 1.14, written by Peter Selinger 2001-2017
</metadata>
<g transform="translate(0.000000,654.000000) scale(0.100000,-0.100000)"
fill="#000000" stroke="none">
<path d="M2385 5660 l-50 -7 58 -1 c37 -1 56 2 52 8 -3 6 -7 9 -8 8 -1 0 -24
-4 -52 -8z"/>
<path d="M2460 5667 c3 -2 38 -7 78 -11 41 -3 78 -8 83 -12 5 -3 9 -1 9 4 0 5
-10 12 -23 14 -32 6 -153 10 -147 5z"/>
<path d="M2310 5650 c-8 -5 -11 -10 -7 -10 4 0 2 -6 -5 -14 -8 -9 -17 -11 -22
-5 -14 13 -46 11 -46 -2 0 -6 -9 -9 -20 -6 -11 3 -20 1 -20 -4 0 -5 -11 -4
-24 2 -26 12 -66 -2 -66 -23 0 -6 9 -3 21 8 19 17 22 18 50 2 16 -10 29 -12
29 -7 0 7 12 8 31 4 22 -5 29 -4 25 4 -4 6 -13 8 -19 5 -9 -5 -9 -4 -1 5 8 9
21 7 55 -8 45 -20 56 -21 44 -1 -4 6 -14 9 -23 5 -13 -5 -13 -2 2 14 21 24 19
45 -4 31z"/>
<path d="M1770 5639 c0 -7 -1 -7 136 -9 128 -2 151 -10 101 -34 -19 -9 -41
-16 -49 -17 -7 -1 -3 -4 10 -7 20 -6 15 -11 -40 -39 -35 -18 -80 -35 -100 -38
-39 -6 -53 -25 -18 -25 14 0 18 -5 13 -17 -5 -15 -3 -16 7 -6 11 10 11 15 0
28 -11 13 -9 15 14 15 15 0 43 8 64 19 36 18 37 18 56 0 26 -25 12 -36 -46
-38 -10 -1 -27 -10 -38 -21 -13 -13 -32 -19 -57 -19 -21 0 -62 -2 -92 -6 -43
-6 -55 -5 -62 8 -6 10 -17 13 -31 9 -14 -3 -19 -2 -14 6 4 7 13 12 21 12 16 0
13 29 -4 40 -27 16 9 20 45 5 32 -13 35 -13 30 0 -3 10 1 18 12 22 9 3 23 11
30 16 27 21 -10 24 -58 6 -30 -11 -51 -15 -55 -9 -3 6 -19 10 -36 10 -80 0 9
55 136 83 19 5 19 5 -1 6 -11 0 -53 -10 -92 -23 -40 -14 -72 -22 -72 -19 0 3
-6 0 -13 -6 -8 -6 -17 -8 -20 -4 -4 3 -7 1 -7 -6 0 -8 -8 -11 -20 -8 -14 4
-24 -2 -32 -16 -7 -12 -11 -25 -10 -29 1 -5 -3 -8 -8 -8 -20 0 -9 -21 16 -30
14 -6 23 -14 19 -20 -10 -15 42 -43 74 -38 19 3 27 0 25 -7 -3 -6 -21 -12 -42
-12 -27 -1 -45 6 -70 28 -18 16 -37 29 -42 29 -19 0 -20 -20 0 -40 11 -11 20
-22 20 -24 0 -5 -62 -21 -72 -18 -5 1 -8 -3 -8 -9 0 -7 -11 -8 -30 -4 -30 7
-42 -7 -18 -21 7 -5 8 -3 3 6 -5 8 -4 11 3 6 6 -4 9 -13 6 -21 -4 -8 -10 -12
-15 -9 -5 3 -9 -2 -9 -10 0 -9 4 -16 9 -16 5 0 7 -9 4 -20 -3 -11 -10 -20 -15
-20 -7 0 -7 -4 -1 -12 16 -21 23 -48 13 -48 -6 0 -10 9 -10 20 0 11 -7 20 -15
20 -9 0 -12 6 -8 16 5 14 3 14 -16 3 -11 -8 -21 -22 -21 -33 0 -18 -1 -19 -20
-1 -11 10 -20 13 -20 7 0 -17 -41 -10 -62 10 -22 22 -122 51 -146 44 -10 -4
-25 -23 -32 -44 -8 -20 -16 -40 -18 -44 -2 -5 3 -8 11 -8 8 0 17 -7 21 -15 8
-21 32 -19 58 7 l22 22 15 -35 c26 -61 25 -70 -7 -58 -15 6 -40 11 -57 11 -16
-1 -33 4 -37 11 -5 8 -9 6 -13 -6 -6 -15 -8 -15 -24 3 -14 18 -20 19 -52 9
-31 -10 -67 -44 -57 -55 2 -2 24 10 48 26 43 29 44 29 58 9 11 -16 17 -17 28
-8 10 8 14 8 14 1 0 -8 8 -8 23 -3 14 5 36 3 60 -5 20 -7 37 -11 37 -8 0 2 9
0 20 -6 11 -6 17 -16 14 -25 -4 -8 -1 -15 5 -15 6 0 11 4 11 9 0 5 3 16 6 24
3 10 -3 17 -20 21 -36 9 -32 26 7 27 17 1 35 1 40 0 13 -2 7 17 -8 23 -8 3
-15 0 -15 -7 0 -8 -4 -7 -10 3 -7 10 -13 11 -17 5 -9 -12 -28 -13 -38 -3 -4 3
3 9 14 13 19 6 31 27 14 24 -21 -3 -43 2 -43 11 0 5 13 16 30 25 36 18 41 19
34 2 -4 -10 7 -14 42 -15 25 0 51 -5 57 -11 18 -18 28 -12 21 14 -5 21 -3 24
10 19 20 -8 56 -79 56 -110 0 -22 -14 -25 -129 -26 -19 0 -28 -4 -22 -8 7 -4
23 -6 37 -4 15 1 24 -3 24 -12 0 -10 -12 -14 -40 -14 -22 0 -40 -4 -40 -8 0
-4 16 -6 36 -4 27 3 39 0 46 -12 11 -20 28 -12 28 14 0 10 4 21 9 24 14 9 58
-10 58 -26 0 -12 7 -104 19 -248 7 -94 11 -112 32 -140 28 -38 68 -52 151 -55
42 -2 153 -6 248 -10 182 -7 212 -1 245 42 11 16 37 21 73 15 6 -1 11 -11 12
-22 2 -21 -10 -27 -92 -40 -42 -7 -68 -19 -102 -46 -24 -20 -42 -39 -39 -41 3
-3 19 6 36 21 25 21 35 24 51 16 13 -8 19 -7 19 0 0 7 8 9 20 5 25 -8 26 3 3
21 -16 12 -15 13 12 14 17 0 40 3 52 6 16 4 23 0 28 -15 3 -12 10 -19 14 -17
10 6 51 -22 51 -35 0 -5 -17 -7 -40 -3 -28 5 -40 3 -40 -5 0 -7 4 -9 10 -6 5
3 26 2 45 -4 30 -8 35 -7 35 7 0 23 -11 37 -38 51 -12 7 -20 16 -17 21 11 18
14 50 5 50 -5 0 -7 6 -4 14 3 7 -2 16 -11 20 -9 3 -14 10 -11 14 3 5 -6 14
-20 20 -19 9 -23 17 -20 39 3 14 10 29 16 33 6 4 55 13 108 20 53 7 106 14
117 15 11 2 26 4 33 4 8 1 11 8 7 20 -3 11 -1 22 5 26 5 3 10 17 10 30 0 13 4
25 10 27 5 2 11 15 12 31 1 15 8 27 14 27 7 0 15 7 18 16 3 8 11 12 16 9 11
-7 50 14 82 45 9 8 53 30 96 48 93 38 121 72 85 100 -25 21 -37 62 -18 62 9 0
12 -9 9 -25 -4 -25 9 -34 22 -14 3 6 0 15 -7 20 -11 7 -10 9 4 9 9 0 17 6 17
14 0 8 8 17 18 21 16 6 16 7 -2 21 -17 12 -18 14 -3 14 24 0 21 25 -5 43 l-23
16 26 0 c14 1 28 4 32 7 12 12 -18 44 -42 44 -23 0 -22 2 15 44 22 24 45 45
52 45 7 1 10 6 7 11 -3 6 -1 10 4 10 6 0 11 4 11 9 0 5 -11 6 -25 3 -13 -4
-24 -11 -24 -17 0 -5 -10 -13 -23 -19 -18 -7 -20 -10 -7 -13 14 -3 12 -9 -12
-36 -16 -17 -29 -34 -29 -38 0 -4 15 -14 33 -23 l32 -16 -32 0 c-39 0 -43 -16
-8 -32 28 -12 33 -28 10 -28 -18 0 -19 -12 -3 -28 9 -9 8 -12 -6 -12 -11 0
-16 -5 -13 -13 4 -10 -1 -13 -17 -10 -25 5 -61 -27 -38 -34 6 -3 12 -9 12 -15
0 -5 10 -18 23 -28 26 -22 18 -36 -13 -20 -16 9 -25 9 -36 0 -18 -16 -9 -30
19 -30 21 0 21 -1 -3 -13 -14 -7 -46 -21 -73 -31 -26 -10 -66 -33 -89 -52 -25
-22 -45 -31 -50 -26 -12 12 -61 -36 -65 -63 -2 -11 -8 -24 -13 -29 -6 -6 -10
-20 -10 -32 0 -12 -7 -27 -15 -34 -13 -11 -22 -9 -51 6 -43 23 -66 53 -94 124
-23 58 -16 100 15 100 29 0 17 40 -17 56 l-33 15 35 -6 34 -5 -29 30 c-16 16
-35 30 -42 30 -10 0 -11 15 -8 62 11 129 -43 181 -180 172 -39 -3 -75 -7 -82
-9 -7 -2 -15 0 -18 5 -6 9 11 16 58 24 51 9 74 39 37 49 -32 8 -23 26 18 32
62 11 74 16 68 30 -3 8 3 16 12 18 15 4 15 5 -1 6 -11 1 -21 -7 -24 -19 -3
-13 -14 -20 -29 -20 -30 0 -23 23 12 39 31 14 24 28 -19 36 -43 8 -247 12
-247 4z m-200 -79 c0 -5 -8 -7 -17 -4 -10 3 -7 -1 7 -10 15 -9 36 -12 54 -9
20 4 27 3 22 -5 -4 -6 -14 -8 -24 -5 -13 5 -12 1 6 -19 l22 -24 -23 -22 c-25
-23 -62 -28 -87 -12 -13 9 -13 11 -1 19 11 7 7 13 -20 24 -19 9 -28 16 -20 16
11 1 11 4 1 16 -10 12 -10 15 4 15 9 0 16 4 16 9 0 9 20 17 48 20 6 0 12 -3
12 -9z m180 -5 c0 -2 -10 -9 -22 -15 -22 -11 -22 -10 -4 4 21 17 26 19 26 11z
m-53 -29 c0 -8 -6 -12 -15 -9 -11 5 -11 7 0 14 7 5 13 9 14 9 0 0 1 -6 1 -14z
m-211 -87 c3 -5 -4 -9 -14 -9 -11 0 -22 6 -25 14 -4 10 0 12 14 9 11 -3 22 -9
25 -14z m174 -19 c0 -5 -7 -7 -15 -4 -8 4 -15 8 -15 10 0 2 7 4 15 4 8 0 15
-4 15 -10z m-541 -151 l25 -10 -35 -21 c-19 -11 -44 -29 -56 -40 -21 -20 -22
-20 -46 -2 l-25 19 19 37 c18 36 22 37 56 32 20 -3 48 -10 62 -15z m1079 -87
c2 -7 -3 -12 -11 -12 -19 0 -28 -35 -14 -49 15 -15 44 -14 50 2 3 7 6 6 6 -5
1 -9 -8 -19 -18 -23 -21 -6 -34 -44 -25 -72 19 -61 67 -141 90 -152 50 -22 19
-20 -74 7 l-92 26 4 35 c5 37 26 174 31 201 2 8 4 25 4 37 1 18 6 22 23 20 12
-2 24 -9 26 -15z m487 -22 c3 -5 -1 -10 -9 -10 -9 0 -16 5 -16 10 0 6 4 10 9
10 6 0 13 -4 16 -10z m-480 -30 c3 -5 -1 -10 -10 -10 -9 0 -13 5 -10 10 3 6 8
10 10 10 2 0 7 -4 10 -10z m-858 -36 c-3 -3 -12 -4 -19 -1 -8 3 -5 6 6 6 11 1
17 -2 13 -5z m-67 -30 c0 -8 -5 -12 -10 -9 -6 4 -8 11 -5 16 9 14 15 11 15 -7z
m818 -375 c-20 -13 -28 -11 -22 5 3 8 12 12 21 9 12 -5 12 -7 1 -14z m-93
-119 c3 -5 2 -10 -4 -10 -5 0 -13 5 -16 10 -3 6 -2 10 4 10 5 0 13 -4 16 -10z"/>
<path d="M2668 5640 c43 -10 43 -11 19 -35 -15 -15 -19 -16 -14 -4 6 17 0 17
-88 5 -16 -2 -33 -5 -37 -5 -5 -1 -8 -5 -8 -11 0 -9 14 -8 90 6 21 4 22 3 7
-6 -31 -19 -7 -30 28 -13 40 19 51 14 35 -16 -13 -25 -3 -27 22 -4 10 9 30 17
46 19 15 1 46 5 70 9 46 8 57 -5 20 -23 -17 -8 -18 -11 -7 -11 21 -1 43 25 34
40 -5 7 -22 9 -49 5 -72 -12 -111 -13 -124 -3 -9 8 -8 12 5 23 17 11 16 13
-10 23 -16 6 -38 11 -50 10 -15 -1 -11 -4 11 -9z"/>
<path d="M4009 5566 c-26 -11 -29 -36 -3 -36 8 0 14 -4 14 -10 0 -11 43 -14
54 -3 3 4 12 8 19 9 7 1 23 5 37 7 14 3 31 6 38 6 6 1 12 5 12 10 0 17 -90 4
-111 -15 -21 -19 -21 -19 -18 1 2 11 10 25 18 31 12 9 10 11 -10 11 -13 0 -36
-5 -50 -11z m28 -22 c-3 -3 -12 -4 -19 -1 -8 3 -5 6 6 6 11 1 17 -2 13 -5z
m83 2 c0 -2 -7 -7 -16 -10 -8 -3 -12 -2 -9 4 6 10 25 14 25 6z"/>
<path d="M4591 5561 c-7 -5 -9 -11 -4 -14 5 -3 15 -2 22 2 7 5 9 11 4 14 -5 3
-15 2 -22 -2z"/>
<path d="M4632 5548 c-6 -6 -12 -17 -12 -24 0 -7 -6 -15 -12 -17 -7 -3 -3 -6
10 -6 13 -1 21 -5 18 -10 -3 -5 11 -16 32 -24 33 -14 39 -13 55 1 9 8 14 18
11 21 -4 3 -9 0 -11 -6 -6 -15 -42 -17 -63 -3 -13 9 -13 11 0 20 8 5 29 8 45
5 23 -4 25 -3 10 4 -11 4 -20 17 -20 27 0 23 -44 31 -63 12z m53 -8 c3 -6 -6
-15 -20 -20 -34 -13 -35 -13 -35 4 0 22 43 35 55 16z"/>
<path d="M3841 5540 c-10 -5 -9 -9 2 -13 8 -3 20 0 26 6 9 9 11 8 6 -5 -4 -10
-3 -18 2 -18 20 0 73 22 73 30 0 11 -92 11 -109 0z"/>
<path d="M3397 5531 c-17 -6 -17 -8 -3 -20 21 -18 20 -43 -4 -84 -16 -27 -26
-34 -42 -29 -20 5 -20 5 3 18 13 7 18 13 10 14 -10 0 -11 3 -2 14 9 11 7 15
-8 19 -11 2 -24 0 -29 -5 -6 -6 -17 -5 -30 3 -28 17 -41 3 -17 -19 10 -9 14
-11 10 -3 -5 9 -3 12 6 9 8 -3 16 -13 18 -24 3 -21 41 -61 41 -45 0 6 6 8 13
6 7 -3 21 10 31 30 21 39 36 45 36 16 0 -26 15 -34 48 -26 l27 7 -28 24 c-16
13 -33 21 -39 18 -6 -4 -9 -1 -6 6 2 8 21 15 42 17 37 3 66 17 66 33 0 12 -79
29 -86 19 -3 -5 -12 -5 -22 0 -9 5 -25 5 -35 2z m28 -11 c3 -5 1 -10 -4 -10
-6 0 -11 5 -11 10 0 6 2 10 4 10 3 0 8 -4 11 -10z m94 -9 c7 -5 9 -11 4 -14
-15 -9 -81 -12 -89 -4 -4 4 0 7 9 7 10 0 17 5 17 10 0 12 40 13 59 1z m-39
-93 c0 -5 -9 -8 -20 -8 -13 0 -20 7 -20 20 0 18 2 19 20 8 11 -7 20 -16 20
-20z"/>
<path d="M3960 5520 c0 -5 5 -10 10 -10 6 0 10 5 10 10 0 6 -4 10 -10 10 -5 0
-10 -4 -10 -10z"/>
<path d="M1400 5516 c0 -2 7 -9 15 -16 12 -10 15 -10 15 4 0 9 -7 16 -15 16
-8 0 -15 -2 -15 -4z"/>
<path d="M3340 5505 c-8 -9 -17 -12 -22 -7 -11 11 -60 3 -53 -8 3 -5 22 -7 43
-5 20 1 41 -2 45 -9 6 -8 10 -8 13 1 3 7 13 9 22 6 11 -4 8 2 -7 15 -29 26
-26 26 -41 7z"/>
<path d="M1320 5470 c-12 -23 4 -34 63 -45 27 -5 37 -4 37 5 0 12 -36 49 -49
51 -3 0 -14 2 -24 4 -9 2 -22 -5 -27 -15z m81 -26 c13 -16 12 -17 -11 -11 -14
4 -28 7 -32 7 -5 0 -8 9 -8 20 0 17 3 19 18 11 10 -5 25 -18 33 -27z"/>
<path d="M4743 5463 c-22 -47 -17 -51 50 -32 51 14 47 49 -5 40 -5 0 -8 4 -8
9 0 20 -25 9 -37 -17z m43 -2 c49 9 36 -15 -14 -26 -32 -7 -32 -6 -20 19 7 16
14 22 18 16 4 -6 11 -10 16 -9z"/>
<path d="M1663 5465 c0 -10 10 -15 26 -15 25 1 25 1 7 15 -25 19 -33 19 -33 0z"/>
<path d="M1193 5446 c-4 -8 -17 -16 -28 -18 -17 -3 -15 -6 13 -20 33 -17 34
-17 58 7 14 14 22 30 19 35 -9 15 -53 12 -62 -4z m44 -2 c-3 -3 -12 -4 -19 -1
-8 3 -5 6 6 6 11 1 17 -2 13 -5z m-7 -23 c0 -5 -7 -11 -15 -15 -15 -5 -20 5
-8 17 9 10 23 9 23 -2z"/>
<path d="M1307 5424 c-9 -10 4 -34 19 -34 8 0 14 4 14 9 0 12 -26 32 -33 25z"/>
<path d="M4755 5394 c-20 -18 -43 -28 -68 -30 -42 -3 -144 -40 -164 -60 -8 -7
-8 -15 -2 -21 7 -7 -4 -12 -32 -16 -54 -7 -71 -23 -45 -43 24 -17 18 -24 -11
-13 -16 6 -21 13 -16 26 6 14 2 13 -24 -5 -26 -18 -32 -19 -37 -7 -9 23 -23
18 -34 -12 l-9 -28 -13 38 c-8 20 -19 37 -26 37 -15 0 -56 -54 -71 -93 -10
-28 -9 -34 8 -49 10 -9 19 -19 19 -22 0 -12 -21 -5 -70 24 -28 16 -62 33 -76
36 -25 6 -25 5 -14 -16 9 -17 14 -19 20 -10 6 10 24 4 74 -24 58 -33 67 -35
73 -20 4 10 0 22 -10 29 -23 17 -21 57 4 89 36 46 74 29 63 -29 -2 -14 0 -42
5 -61 8 -30 7 -38 -9 -54 -11 -11 -17 -26 -14 -34 9 -24 52 9 62 47 l8 31 27
-30 c19 -21 25 -34 20 -49 -4 -11 -7 -89 -7 -172 1 -148 0 -153 -20 -154 -12
0 -29 -2 -38 -4 -10 -2 -43 -6 -75 -9 -31 -3 -58 -8 -61 -10 -2 -3 41 -27 96
-55 90 -45 100 -53 106 -83 8 -40 40 -80 82 -101 25 -13 66 -15 245 -12 118 1
281 4 364 5 157 2 184 8 226 53 41 43 41 43 54 392 7 184 0 213 -61 262 -52
41 -39 55 44 49 l67 -5 -69 10 c-55 9 -70 8 -77 -3 -5 -7 -16 -14 -26 -15 -10
-1 -40 -4 -68 -7 -27 -2 -102 -7 -165 -11 -63 -3 -140 -8 -170 -10 -30 -3
-100 -7 -155 -10 -182 -11 -197 -14 -241 -45 -35 -25 -43 -27 -48 -14 -3 8
-22 22 -42 30 -31 13 -35 19 -31 40 3 20 1 24 -11 19 -13 -5 -13 -3 1 13 9 10
17 24 17 30 0 6 5 14 11 17 6 4 9 -3 7 -21 -2 -22 2 -28 25 -35 20 -5 27 -4
24 4 -2 7 -11 12 -20 12 -25 0 -28 11 -4 14 34 4 50 4 75 -4 27 -9 31 15 6 36
-14 12 -14 14 3 20 10 4 33 8 51 8 27 1 32 5 32 25 0 19 9 27 41 40 23 9 44
15 46 12 3 -3 13 2 21 11 9 9 18 11 19 6 5 -15 62 -3 76 17 6 9 22 22 34 28
22 12 51 16 41 6 -4 -3 2 -14 13 -25 13 -13 27 -17 44 -13 73 18 106 -39 41
-70 -19 -9 -37 -16 -41 -16 -4 0 -18 -9 -32 -20 l-26 -20 27 0 c36 0 68 18 59
33 -4 7 0 7 10 -2 9 -7 17 -10 17 -5 0 5 6 2 13 -8 13 -16 67 -15 67 3 0 5
-11 4 -25 -1 -27 -10 -30 -2 -26 67 3 39 -26 58 -76 50 -20 -4 -31 -2 -28 4 4
5 -1 9 -9 9 -9 0 -15 6 -13 13 5 25 -48 19 -78 -9z m125 -134 c-8 -5 -19 -10
-25 -10 -5 0 -3 5 5 10 8 5 20 10 25 10 6 0 3 -5 -5 -10z m-550 -172 c0 -23
-26 -58 -43 -58 -6 0 -1 10 11 23 15 16 19 30 15 46 -4 17 -3 22 5 17 7 -4 12
-17 12 -28z"/>
<path d="M1090 5403 c-20 -7 -60 -44 -60 -55 0 -5 4 -6 10 -3 5 3 19 1 31 -5
23 -13 54 -6 44 10 -5 8 -12 7 -23 -2 -13 -11 -14 -11 -7 1 5 9 4 12 -3 7 -6
-3 -14 -1 -18 5 -3 6 0 15 7 20 21 13 29 11 22 -8 -4 -9 -2 -14 3 -10 6 3 16
2 24 -3 11 -7 11 -11 1 -23 -16 -20 2 -31 36 -22 23 5 25 4 14 -9 -16 -20 -11
-20 24 -2 31 16 23 25 -23 21 -26 -2 -30 0 -22 10 8 9 8 15 0 20 -5 3 -7 17
-4 31 5 20 3 24 -17 23 -13 0 -31 -3 -39 -6z m50 -15 c0 -15 -18 -17 -30 -3
-9 11 -8 14 9 12 12 -1 21 -5 21 -9z"/>
<path d="M3632 5370 c-39 -35 -46 -38 -70 -28 -41 17 -345 19 -429 3 -110 -21
-196 -68 -283 -155 -41 -41 -84 -94 -94 -116 -14 -32 -25 -43 -47 -48 -28 -5
-42 -36 -16 -36 8 0 7 -4 -3 -10 -13 -8 -12 -10 4 -10 12 0 16 -5 12 -16 -3
-9 -9 -39 -12 -67 -3 -29 -10 -56 -15 -61 -5 -6 -9 -54 -9 -107 0 -97 0 -98
-27 -111 -46 -22 -51 -45 -51 -245 0 -192 -8 -235 -32 -163 -18 54 -42 68 -70
40 -17 -17 -21 -18 -26 -6 -11 28 -43 28 -98 2 -54 -25 -56 -28 -110 -138 -30
-62 -60 -132 -66 -155 -17 -66 -19 -63 243 -336 89 -93 162 -174 162 -179 0
-6 -7 -14 -15 -18 -8 -5 -43 -24 -78 -44 -66 -37 -66 -36 -20 28 33 46 37 86
9 86 -11 0 -35 9 -53 19 -18 11 -44 21 -58 23 -14 2 -37 12 -52 22 -16 10 -34
16 -42 13 -8 -3 -17 1 -20 9 -3 9 -11 12 -17 8 -8 -4 -9 0 -4 15 4 12 2 21 -4
21 -6 0 -11 -13 -11 -30 0 -22 4 -28 15 -24 10 4 15 0 15 -12 0 -14 3 -15 12
-6 17 17 34 15 55 -6 10 -10 31 -19 47 -20 16 -1 43 -11 61 -22 18 -11 40 -20
49 -20 47 0 -24 -111 -153 -238 -100 -97 -196 -235 -299 -428 -7 -13 -22 -24
-33 -24 -20 0 -26 -24 -9 -35 6 -4 3 -16 -10 -32 -11 -14 -20 -32 -20 -40 0
-18 -32 -65 -75 -110 -22 -24 -34 -30 -44 -24 -11 7 -12 13 -3 23 8 10 8 18 1
25 -8 8 -8 13 0 18 8 4 6 11 -4 21 -15 16 -11 39 5 29 16 -10 32 96 17 111 -4
4 -7 2 -7 -4 0 -7 -4 -12 -9 -12 -4 0 -7 12 -5 28 4 27 4 27 -5 2 -4 -14 -4
-30 2 -38 6 -8 6 -12 -2 -12 -7 0 -9 -5 -6 -10 4 -6 11 -8 16 -5 5 4 9 -1 9
-9 0 -9 -3 -16 -8 -16 -17 0 -32 -40 -22 -60 7 -14 7 -20 0 -20 -11 0 -4 -64
10 -89 5 -9 -10 -36 -41 -77 -109 -145 -162 -269 -161 -384 0 -178 108 -310
252 -310 104 0 247 102 360 256 24 32 58 76 76 96 l33 37 7 -37 c4 -20 8 -44
9 -52 2 -8 10 -53 19 -100 8 -47 18 -103 22 -125 3 -22 19 -116 34 -210 27
-156 46 -293 43 -305 -1 -3 -4 -30 -8 -60 -9 -78 -45 -331 -50 -355 -4 -20
-12 -20 -557 -19 -304 1 -559 2 -566 3 -10 1 -12 16 -8 59 3 31 8 89 11 127 4
39 8 93 11 120 3 28 7 77 9 110 3 33 7 92 11 130 3 39 7 85 9 103 1 17 17 59
34 92 23 43 33 74 33 106 0 25 -2 48 -5 50 -3 3 4 27 14 55 11 27 19 57 18 67
0 9 -8 -8 -18 -38 -14 -45 -21 -54 -37 -52 -48 9 -113 2 -158 -18 -27 -11 -50
-19 -52 -18 -3 4 78 142 88 149 5 3 10 14 12 25 4 20 23 66 58 143 77 170 106
345 72 430 -28 71 -86 100 -126 64 -17 -15 -19 -15 -36 5 -10 12 -30 25 -44
31 -19 7 -27 21 -37 64 -22 102 -106 207 -164 207 -31 0 -82 -62 -102 -126
-14 -42 -19 -90 -20 -169 0 -103 10 -238 20 -267 2 -7 6 -29 9 -48 3 -19 18
-82 32 -140 14 -58 28 -116 31 -130 5 -21 -5 -14 -53 34 -124 124 -220 122
-228 -6 -4 -71 70 -319 120 -406 14 -24 23 -46 19 -50 -3 -4 -21 -7 -38 -7
-30 0 -32 -2 -31 -35 1 -34 12 -179 19 -250 2 -19 6 -73 10 -120 4 -47 8 -98
10 -115 1 -16 5 -64 9 -105 l7 -75 -210 0 c-115 0 -208 -2 -206 -5 4 -7 5672
-7 5678 0 3 3 -386 5 -863 5 l-869 0 -6 40 c-4 22 -8 51 -10 65 -2 14 -9 57
-15 95 -6 39 -14 90 -17 115 -3 25 -8 63 -12 85 -4 22 -6 67 -5 100 2 63 14
198 17 201 1 1 40 -6 87 -16 75 -15 152 -18 275 -8 6 0 54 -10 109 -22 176
-39 210 -43 336 -44 116 0 167 7 228 34 111 50 162 141 157 286 -5 139 -71
306 -166 419 -23 28 -161 230 -307 450 -422 637 -465 694 -546 730 -71 31
-155 46 -266 49 l-95 2 -54 90 c-31 49 -63 116 -73 149 -10 33 -16 44 -13 25
5 -35 5 -35 -11 -12 -9 13 -17 36 -18 51 -1 15 -9 35 -19 45 -9 10 -17 23 -17
29 0 7 -13 41 -29 76 -27 59 -28 66 -15 97 8 18 15 60 16 94 2 33 5 60 6 60 2
0 16 -8 30 -18 41 -28 120 -21 150 13 20 23 22 37 23 128 2 282 -2 307 -51
327 -28 11 -28 13 -29 107 -1 52 -6 103 -11 113 -6 10 -10 31 -10 47 0 24 -31
122 -54 174 -10 23 27 34 107 34 54 -1 67 2 67 14 0 10 -3 12 -8 6 -8 -11 -91
-14 -108 -3 -6 4 -20 1 -30 -7 -27 -21 -47 -19 -39 4 3 12 0 21 -10 25 -11 4
-14 2 -8 -7 4 -6 -24 20 -62 60 -68 69 -149 126 -200 139 -14 3 -25 9 -25 12
0 3 17 23 37 44 48 49 40 48 -15 -2z m-82 -56 c17 -17 -57 -65 -85 -54 -12 4
-66 8 -121 8 -188 -1 -352 -63 -461 -175 -33 -34 -67 -63 -75 -63 -8 0 -19 -5
-26 -12 -24 -24 -21 0 5 48 68 121 207 220 358 253 57 12 391 9 405 -5z m150
-61 c158 -93 277 -311 245 -451 l-8 -32 -36 35 c-33 32 -37 41 -39 98 -2 37
-11 77 -23 100 -19 37 -24 56 -13 44 3 -3 14 2 25 11 18 16 18 18 2 29 -21 16
-53 17 -53 2 0 -6 8 -8 19 -4 23 7 38 -10 16 -19 -20 -7 -128 90 -136 123 -6
23 -7 24 -8 4 -1 -19 -3 -21 -23 -10 -49 26 -50 28 -27 48 12 10 17 19 12 19
-6 0 -16 -7 -23 -15 -16 -19 -35 -18 -85 4 l-39 17 32 19 c18 11 32 23 32 27
0 11 77 -19 130 -49z m-980 -243 c0 -5 -8 -10 -17 -10 -15 0 -16 2 -3 10 19
12 20 12 20 0z m95 -7 c-4 -10 -9 -25 -12 -35 -5 -16 -50 -34 -60 -24 -12 11
8 52 29 62 36 18 51 17 43 -3z m-25 -77 c-8 -7 -27 -16 -42 -20 -22 -5 -26 -3
-22 8 5 14 25 21 64 25 13 1 13 -1 0 -13z m-17 -222 c-17 -13 -17 -14 0 -8 15
5 17 -1 17 -50 0 -31 -4 -56 -10 -56 -5 0 -10 4 -10 9 0 5 -9 11 -20 14 -18 5
-20 14 -20 99 0 51 -4 99 -8 106 -5 7 -7 26 -4 42 3 24 11 32 36 38 l31 8 3
-94 c2 -81 0 -96 -15 -108z m1167 -13 c0 -63 -2 -67 -34 -93 l-33 -27 -3 82
c-2 85 -2 145 -1 161 1 6 17 -5 36 -24 33 -32 35 -38 35 -99z m-1142 -533 c6
-75 8 -218 2 -244 -4 -17 -4 -38 1 -45 8 -13 13 36 11 99 -1 12 0 22 2 22 1 0
16 -21 33 -47 47 -72 196 -203 231 -203 8 0 21 -31 22 -52 0 -4 -20 -10 -45
-14 -25 -3 -48 -10 -50 -15 -3 -4 2 -6 12 -4 85 18 80 19 86 -12 3 -15 5 -65
4 -111 -3 -121 -23 -131 -173 -86 -54 15 -63 22 -73 51 -11 29 -57 91 -137
183 -12 14 -40 47 -62 74 l-40 48 6 72 c3 39 6 112 6 162 l1 91 57 -1 c47 0
62 4 80 22 26 26 24 25 26 10z m-788 -1398 c0 -5 -4 -10 -10 -10 -5 0 -10 5
-10 10 0 6 5 10 10 10 6 0 10 -4 10 -10z m-780 -175 l23 -24 -23 -48 c-12 -26
-33 -88 -46 -138 l-23 -90 7 95 c3 52 6 125 6 163 0 76 14 87 56 42z m3266
-272 c48 -65 129 -170 179 -234 l92 -115 -73 -47 -74 -46 -127 39 c-70 22
-133 40 -140 40 -12 0 -12 9 2 115 2 22 7 63 10 90 3 28 8 64 10 80 2 17 7 53
10 80 8 70 15 115 19 115 2 0 43 -53 92 -117z"/>
<path d="M3860 5045 c-11 -13 -10 -14 4 -9 9 3 16 10 16 15 0 13 -6 11 -20 -6z"/>
<path d="M2801 3823 c14 -42 80 -125 114 -144 43 -24 75 -33 75 -19 0 6 -3 9
-8 6 -11 -7 -64 19 -92 46 -32 30 -80 103 -80 123 0 8 -4 15 -9 15 -6 0 -6
-10 0 -27z"/>
<path d="M4130 5371 c-75 -24 -79 -26 -143 -102 -55 -66 -55 -67 -36 -85 10
-9 19 -14 19 -10 0 4 10 0 22 -8 24 -17 58 -21 58 -8 0 5 -9 17 -20 27 -20 18
-20 18 3 58 18 32 38 47 109 83 47 24 89 48 93 54 10 15 -43 11 -105 -9z m80
4 c0 -3 -33 -21 -74 -41 -105 -50 -150 -111 -113 -151 16 -19 17 -23 5 -23 -8
0 -27 9 -40 20 -14 10 -28 16 -32 13 -3 -3 -6 -1 -6 6 0 7 6 18 13 25 6 7 31
36 55 64 42 49 75 67 157 85 31 7 35 7 35 2z"/>
<path d="M1244 5354 l7 -26 -30 21 c-16 12 -40 21 -53 20 -22 -1 -22 -1 3 -9
14 -4 37 -15 51 -24 28 -18 43 -9 32 18 -7 19 5 20 29 2 11 -9 15 -20 10 -31
-4 -13 -3 -16 5 -11 19 12 14 33 -13 50 -36 24 -48 20 -41 -10z"/>
<path d="M5410 5348 c0 -4 9 -8 20 -8 11 0 20 -4 20 -9 0 -20 -74 -29 -85 -11
-3 6 4 14 17 19 13 6 18 10 11 10 -21 2 -43 -11 -43 -25 0 -19 48 -29 81 -17
19 7 31 7 38 0 12 -12 27 16 17 31 -7 12 -76 21 -76 10z m70 -18 c0 -5 -4 -10
-10 -10 -5 0 -10 5 -10 10 0 6 5 10 10 10 6 0 10 -4 10 -10z"/>
<path d="M5512 5321 c-10 -6 -10 -10 2 -20 9 -7 17 -8 20 -2 3 5 0 12 -6 14
-7 3 2 6 20 6 20 1 31 -3 27 -9 -4 -6 -11 -8 -16 -5 -5 4 -9 1 -9 -5 0 -7 7
-9 16 -6 9 3 18 6 20 6 2 0 4 7 4 15 0 17 -55 21 -78 6z"/>
<path d="M1228 5307 c-21 -6 -38 -14 -38 -18 0 -4 20 -1 45 8 25 8 45 17 45
19 0 5 -6 4 -52 -9z"/>
<path d="M5407 5284 c-11 -11 5 -33 34 -48 27 -14 29 -13 29 6 0 11 -8 22 -20
25 -11 3 -20 9 -20 14 0 10 -14 12 -23 3z m40 -30 c-3 -3 -12 -4 -19 -1 -8 3
-5 6 6 6 11 1 17 -2 13 -5z"/>
<path d="M5133 5261 c-21 -22 -68 -25 -84 -5 -6 8 -17 14 -23 14 -6 -1 0 -10
13 -20 30 -26 78 -26 99 0 17 20 17 20 50 -1 17 -12 32 -25 32 -31 0 -5 -5 -6
-11 -2 -6 4 -5 -3 2 -17 l14 -24 3 23 c4 27 -11 48 -49 68 -26 13 -30 12 -46
-5z"/>
<path d="M5484 5214 c0 -18 4 -23 16 -18 31 13 63 17 57 7 -7 -12 7 -26 36
-36 9 -4 17 -2 17 3 0 6 -9 10 -20 10 -11 0 -19 3 -19 8 4 23 -4 32 -27 32
-14 0 -33 4 -43 9 -14 8 -17 5 -17 -15z"/>
<path d="M5391 5221 c-10 -7 -10 -10 -1 -16 7 -4 15 -3 19 3 3 5 15 12 26 15
17 4 16 5 -5 6 -14 0 -31 -3 -39 -8z"/>
<path d="M6073 5184 c-25 -11 -12 -25 20 -22 17 2 32 8 32 13 0 11 -33 17 -52
9z m44 -10 c-3 -3 -12 -4 -19 -1 -8 3 -5 6 6 6 11 1 17 -2 13 -5z"/>
<path d="M420 5165 c-36 -20 -91 -45 -100 -45 -15 0 -30 -28 -24 -43 3 -9 22
-22 42 -31 20 -8 31 -16 25 -17 -7 -1 -17 -3 -23 -4 -5 -1 -18 -3 -27 -4 -10
-1 -25 -5 -33 -11 -12 -7 -11 -12 5 -30 16 -18 28 -21 57 -17 40 5 48 -2 23
-23 -9 -7 -13 -15 -10 -18 7 -7 34 29 35 46 0 9 -11 11 -40 7 -29 -4 -45 -2
-56 10 -17 17 -12 21 38 29 15 3 32 7 37 10 5 4 11 1 13 -6 3 -9 6 -9 12 0 4
7 -10 20 -41 34 -26 13 -48 28 -50 33 -2 6 29 26 69 45 83 39 83 38 77 45 -3
2 -16 -2 -29 -10z"/>
<path d="M460 5168 c0 -4 3 -8 8 -8 4 0 24 -4 45 -9 20 -5 37 -6 37 -2 0 3
-20 11 -45 17 -25 6 -45 7 -45 2z"/>
<path d="M5663 5161 c32 -4 56 -15 76 -33 16 -15 32 -24 36 -20 13 14 100 10
117 -5 19 -17 38 -10 38 14 0 13 9 15 53 10 59 -6 122 -35 168 -78 16 -15 35
-26 42 -24 7 3 19 0 27 -5 13 -9 13 -11 0 -21 -12 -8 -12 -10 5 -7 33 5 23 29
-20 47 -22 9 -62 31 -90 49 -86 56 -170 69 -199 30 -11 -15 -15 -17 -12 -6 6
20 -11 27 -44 18 -42 -12 -96 -4 -128 19 -21 15 -43 21 -74 19 l-43 -1 48 -6z"/>
<path d="M630 5134 c41 -7 99 -20 128 -27 45 -12 54 -12 59 -1 3 8 15 14 27
15 12 0 15 3 8 6 -8 3 -24 0 -36 -6 -17 -10 -40 -8 -114 8 -50 12 -104 21
-119 20 -16 0 6 -7 47 -15z"/>
<path d="M4240 5032 c0 -5 7 -13 16 -16 10 -4 14 -1 12 6 -5 15 -28 23 -28 10z"/>
<path d="M6220 4930 c0 -5 3 -10 8 -11 4 0 15 -2 25 -4 21 -4 23 11 1 19 -23
9 -34 7 -34 -4z"/>
<path d="M306 4901 c-11 -12 -14 -21 -7 -26 17 -10 13 -35 -4 -29 -8 4 -15 1
-15 -4 0 -16 14 -22 29 -13 20 13 49 2 55 -21 4 -18 10 -20 40 -15 32 5 35 4
27 -11 -5 -9 -23 -30 -40 -46 -17 -17 -31 -33 -31 -38 0 -9 62 25 108 59 l32
24 0 -22 c0 -18 2 -19 15 -9 18 15 19 42 3 58 -9 9 -9 15 0 24 9 9 12 8 12 -6
0 -12 5 -16 16 -12 9 3 26 9 39 12 17 4 22 11 17 22 -5 14 -3 15 9 5 13 -11
43 -17 64 -14 9 2 -62 31 -76 31 -4 0 -9 -8 -12 -18 -2 -11 -14 -22 -27 -25
-21 -5 -21 -5 -5 13 32 36 10 44 -28 10 -20 -17 -34 -36 -31 -41 6 -10 -7 -25
-53 -58 -40 -27 -41 -21 -6 26 l27 35 -47 -7 c-43 -7 -47 -6 -47 14 0 19 -10
26 -33 22 -4 -1 -13 10 -19 24 -10 21 -8 28 8 40 10 8 14 15 8 15 -6 0 -19 -9
-28 -19z m211 -116 c0 -8 -4 -12 -9 -9 -5 3 -6 10 -3 15 9 13 12 11 12 -6z"/>
<path d="M690 4841 c0 -5 10 -8 23 -7 25 2 90 -42 81 -55 -8 -13 10 -11 26 4
12 10 12 9 4 -3 -6 -8 -14 -23 -18 -34 -5 -14 -2 -17 9 -12 10 4 19 -3 27 -19
9 -20 14 -22 29 -14 16 8 19 6 19 -14 0 -13 11 -34 24 -46 14 -13 22 -29 19
-37 -3 -8 0 -14 6 -14 6 0 22 -18 36 -40 22 -34 25 -51 25 -125 0 -98 5 -111
70 -180 25 -27 59 -77 74 -109 26 -54 94 -141 103 -132 3 2 -5 23 -16 47 -29
59 -26 61 19 9 l40 -44 -48 -29 c-64 -40 -128 -110 -163 -178 -34 -68 -40 -92
-46 -188 -20 -291 260 -526 547 -460 66 15 160 63 200 103 l36 34 39 -33 c35
-28 39 -38 40 -76 0 -58 -14 -209 -21 -220 -3 -5 0 -9 5 -9 6 0 11 15 12 33 0
17 2 39 3 47 2 8 6 52 10 97 l7 82 -42 46 -42 45 26 38 c42 61 67 127 74 196
6 62 8 67 44 91 21 14 41 25 43 25 3 0 22 12 43 26 33 22 39 23 49 9 6 -8 34
-22 62 -30 28 -9 56 -23 61 -33 10 -16 10 -16 11 0 0 12 -19 24 -60 39 -66 24
-78 35 -61 52 18 18 13 24 -21 23 -23 -1 -33 4 -33 14 0 12 -12 14 -58 12 -42
-2 -62 1 -74 13 -8 9 -21 14 -28 12 -6 -3 -20 9 -30 26 -10 18 -33 51 -52 75
-32 39 -33 42 -12 40 12 -2 24 2 26 9 6 16 -47 42 -100 49 -23 4 -54 13 -69
20 -36 19 -135 41 -175 39 -39 -1 -45 23 -14 54 15 15 29 18 65 15 28 -3 46
-1 46 6 0 5 10 10 23 10 49 0 66 -12 83 -56 9 -24 21 -44 25 -44 5 0 9 24 10
53 1 81 7 99 45 138 25 26 33 41 28 54 -5 13 -4 16 4 11 11 -7 16 5 13 31 -1
6 16 21 37 33 22 13 45 36 53 54 13 29 17 31 69 31 37 0 64 7 83 19 32 22 23
45 -11 27 -21 -11 -33 -3 -45 32 -4 9 -11 17 -17 17 -14 0 -13 -9 5 -26 24
-24 18 -31 -34 -49 -38 -12 -52 -22 -59 -45 -7 -18 -19 -30 -34 -32 -13 -2
-22 -9 -21 -15 1 -6 -11 -17 -27 -25 -27 -11 -30 -18 -28 -49 1 -30 -5 -43
-30 -69 -18 -17 -33 -38 -33 -46 -1 -8 -3 -18 -4 -24 -1 -5 -3 -31 -4 -57 l-1
-48 -19 41 c-19 42 -39 54 -93 54 -15 0 -29 -4 -33 -9 -3 -5 -20 -8 -38 -7
-46 4 -73 -12 -84 -47 -7 -27 -15 -33 -48 -38 -22 -4 -53 -13 -70 -19 -29 -11
-32 -10 -79 41 -27 29 -53 65 -58 80 -9 26 -38 48 -38 30 0 -20 13 -41 21 -35
5 3 6 -2 3 -10 -4 -9 1 -18 10 -22 9 -3 13 -10 10 -15 -2 -5 0 -18 6 -29 6
-11 7 -20 3 -20 -11 0 -31 32 -64 100 -14 31 -46 76 -71 100 -62 63 -68 77
-68 177 0 71 -4 94 -20 121 -13 21 -16 32 -8 30 11 -4 29 -31 42 -63 2 -6 8
-6 15 1 13 12 -18 49 -93 109 -20 17 -40 44 -45 60 -6 24 -12 29 -32 27 -19
-3 -22 -1 -11 9 6 7 12 19 12 27 0 12 -3 12 -17 1 -9 -8 -14 -9 -11 -4 4 6 0
26 -8 45 -11 25 -17 31 -23 21 -7 -11 -15 -9 -39 9 -31 23 -82 36 -82 21z
m280 -251 c0 -5 -2 -10 -4 -10 -3 0 -8 5 -11 10 -3 6 -1 10 4 10 6 0 11 -4 11
-10z m1100 -105 c0 -6 -57 -35 -70 -35 -7 0 -6 5 2 14 7 8 16 12 20 9 5 -2 16
1 25 6 21 12 23 13 23 6z m-243 -525 c2 0 1 -5 -2 -10 -4 -7 -12 -7 -24 0 -10
5 -21 7 -25 5 -3 -3 -4 -2 -1 2 3 3 -3 12 -13 20 -13 10 -8 10 22 -2 21 -8 40
-15 43 -15z m155 -200 c47 3 58 1 58 -9 0 -14 -129 -8 -135 7 -9 24 6 34 25
17 11 -10 33 -16 52 -15z"/>
<path d="M330 4700 c-8 -5 -12 -11 -9 -14 2 -3 11 -1 19 4 8 5 12 11 9 14 -2
3 -11 1 -19 -4z"/>
<path d="M275 4670 c-3 -5 -2 -10 4 -10 5 0 13 5 16 10 3 6 2 10 -4 10 -5 0
-13 -4 -16 -10z"/>
<path d="M850 4666 c0 -14 28 -42 35 -34 2 2 2 14 -2 26 -6 24 -33 31 -33 8z"/>
<path d="M5438 4673 c-3 -4 -5 -50 -6 -100 0 -83 2 -93 17 -93 14 0 17 6 13
26 -3 18 0 30 11 35 14 8 14 14 0 67 -17 59 -28 80 -35 65z m28 -122 c-6 -2
-13 -7 -16 -12 -3 -4 -5 23 -6 59 l0 67 17 -55 c12 -39 13 -56 5 -59z m-19
-53 c-3 -8 -6 -5 -6 6 -1 11 2 17 5 13 3 -3 4 -12 1 -19z"/>
<path d="M2101 4562 c-6 -12 -11 -27 -11 -34 0 -7 7 0 15 16 9 16 13 31 11 33
-2 3 -9 -4 -15 -15z"/>
<path d="M5418 4432 c-9 -21 -16 -44 -16 -52 2 -29 -30 -88 -51 -95 -12 -3
-21 -11 -21 -16 0 -5 -10 -9 -23 -9 -29 0 -69 -28 -61 -42 4 -6 2 -8 -4 -4
-17 10 -23 -10 -7 -24 12 -10 15 -10 15 0 0 8 3 10 6 7 4 -4 1 -14 -7 -23 -12
-15 -12 -17 1 -12 8 3 15 17 15 31 -1 15 3 27 7 27 4 0 8 -7 8 -16 0 -15 2
-15 25 0 14 9 30 14 35 11 6 -3 10 1 10 9 0 9 8 15 18 14 45 -4 51 2 62 59 9
41 9 62 2 74 -12 18 2 29 37 29 10 0 25 8 34 18 21 23 22 33 3 26 -8 -3 -27 1
-43 9 -28 15 -28 15 -45 -21z m62 3 c27 -15 22 -19 -38 -29 l-32 -6 16 25 c19
29 20 29 54 10z m-55 -120 c-8 -52 -29 -78 -55 -70 -10 3 -21 1 -25 -5 -3 -5
-25 -10 -48 -10 -31 0 -38 3 -27 10 8 5 23 10 32 10 29 0 87 44 94 70 7 28 24
53 31 46 3 -2 1 -25 -2 -51z"/>
<path d="M4975 4129 c-59 -22 -116 -72 -144 -127 -25 -48 -31 -79 -32 -157
l-1 -61 -91 4 -92 3 93 -60 92 -61 0 -51 0 -51 -34 32 c-70 66 -154 99 -100
39 9 -10 17 -29 18 -41 1 -13 7 -22 14 -20 7 1 12 -9 12 -25 1 -25 2 -26 11
-10 9 15 5 27 -20 62 -17 24 -31 46 -31 50 0 3 20 -8 45 -25 51 -35 87 -80
103 -127 16 -48 -7 -43 -52 9 -20 23 -36 37 -36 32 0 -11 46 -60 86 -92 140
-111 168 -122 310 -122 84 0 104 -3 104 -14 0 -22 -19 -30 -36 -15 -19 15 -64
-3 -64 -26 0 -9 -5 -13 -10 -10 -6 3 -14 -5 -20 -19 -11 -29 -129 -96 -131
-74 -1 7 -5 -3 -10 -22 -4 -19 -6 -43 -3 -52 3 -10 0 -18 -5 -18 -7 0 -5 -14
5 -37 10 -21 18 -53 20 -71 1 -18 5 -36 8 -39 12 -12 6 58 -7 85 -10 22 -13
63 -8 125 1 4 30 22 66 38 36 17 67 39 70 50 3 10 10 18 16 16 5 -1 15 9 22
23 13 25 23 27 63 15 15 -5 23 0 32 20 10 22 17 25 52 23 35 -2 39 -4 34 -24
-6 -25 24 -51 66 -56 24 -3 28 4 46 70 6 19 48 -35 63 -78 11 -35 40 -75 94
-133 15 -17 27 -36 27 -44 0 -8 -12 -62 -27 -119 -31 -118 -41 -126 -129 -116
-53 6 -85 34 -90 79 -4 34 -9 37 -25 16 -12 -14 -12 -16 0 -8 10 6 12 4 7 -4
-8 -12 -13 -9 -71 42 -16 15 -30 18 -69 13 -27 -3 -54 -11 -60 -17 -8 -9 -6
-10 9 -4 11 4 36 9 56 12 32 5 42 0 78 -32 22 -20 38 -42 34 -48 -4 -6 2 -8
15 -5 16 5 27 -1 43 -23 15 -22 29 -29 52 -29 18 0 38 -4 46 -9 10 -6 27 -3
51 9 34 17 38 24 60 107 34 130 35 148 12 171 -40 40 -100 128 -112 164 -6 21
-19 42 -27 47 -19 10 -9 31 16 31 31 0 84 32 122 72 20 21 39 35 43 31 3 -4
17 -8 29 -10 22 -3 22 -3 -2 16 -24 18 -24 18 -7 68 26 77 22 387 -5 460 -25
65 -99 135 -168 158 -75 25 -456 21 -526 -6z m445 -826 c0 -49 -12 -56 -53
-37 -55 26 -43 64 20 64 29 0 33 -3 33 -27z"/>
<path d="M1770 4035 c0 -8 4 -15 10 -15 5 0 7 7 4 15 -4 8 -8 15 -10 15 -2 0
-4 -7 -4 -15z"/>
<path d="M1850 3941 c0 -7 5 -9 10 -6 15 9 71 -5 64 -16 -7 -12 -54 -12 -54 0
0 5 -8 8 -17 7 -33 -5 -18 -20 22 -23 77 -6 87 31 12 44 -25 4 -37 2 -37 -6z"/>
<path d="M1958 3908 c9 -9 15 -9 24 0 9 9 7 12 -12 12 -19 0 -21 -3 -12 -12z"/>
<path d="M3965 3800 c4 -6 11 -8 16 -5 14 9 11 15 -7 15 -8 0 -12 -5 -9 -10z"/>
<path d="M4405 3739 c-4 -6 0 -9 11 -7 21 4 32 -28 15 -45 -8 -8 -11 -5 -11
11 0 12 -4 22 -10 22 -12 0 3 -43 18 -48 14 -4 25 33 17 58 -7 21 -30 27 -40
9z"/>
<path d="M5710 3420 c0 -5 5 -10 10 -10 6 0 10 -6 10 -12 0 -7 11 -18 24 -24
21 -10 24 -9 19 5 -6 17 -43 50 -55 51 -5 0 -8 -4 -8 -10z"/>
<path d="M6041 3244 c-13 -13 -18 -24 -12 -24 15 0 52 38 43 44 -4 2 -18 -6
-31 -20z"/>
<path d="M5824 3164 c15 -14 31 -22 35 -19 7 8 -36 45 -53 45 -6 0 2 -12 18
-26z"/>
<path d="M1857 2884 c-24 -89 -15 -92 10 -4 12 38 18 70 14 70 -4 0 -15 -30
-24 -66z"/>
<path d="M5065 2919 c-38 -16 -54 -18 -67 -10 -12 8 -18 8 -18 1 0 -22 33 -21
98 3 37 14 60 26 52 26 -8 0 -37 -9 -65 -20z"/>
<path d="M5966 2869 c9 -18 12 -38 8 -47 -4 -10 -6 -24 -5 -33 1 -10 -10 -21
-28 -28 -42 -18 -84 -69 -84 -103 0 -15 2 -31 6 -34 10 -10 97 77 104 103 3
15 11 22 19 19 8 -3 20 5 28 17 19 29 32 82 19 74 -6 -4 -20 7 -33 23 -12 16
-28 31 -36 34 -12 4 -11 0 2 -25z m45 -38 c15 -16 15 -22 2 -52 l-15 -34 -12
30 c-9 21 -9 35 -2 52 6 13 11 23 11 23 0 0 8 -8 16 -19z m-52 -93 c-24 -48
-61 -88 -80 -88 -10 0 -19 3 -19 8 0 16 39 65 66 83 38 25 47 24 33 -3z"/>
<path d="M5481 2740 c14 -40 54 -40 54 0 0 21 -5 26 -32 28 -32 3 -32 3 -22
-28z m49 -3 c0 -23 -33 -19 -38 5 -2 12 3 16 17 15 13 -1 21 -8 21 -20z"/>
<path d="M1374 2040 c-22 -9 -94 -75 -94 -87 0 -4 17 9 38 29 62 59 110 72
113 29 4 -45 7 -62 13 -68 11 -12 -2 78 -14 92 -14 17 -25 18 -56 5z"/>
</g>
</svg>
